<?xml version="1.0" encoding="UTF-8"?>
<svg version="1.1" xmlns="http://www.w3.org/2000/svg" width="1024" height="472">
<path d="M0 0 C65.67 0 131.34 0 199 0 C199.04125 26.60625 199.0825 53.2125 199.125 80.625 C199.14320801 89.00729004 199.16141602 97.38958008 199.18017578 106.02587891 C199.18920898 116.30932617 199.18920898 116.30932617 199.19088745 121.13265991 C199.19274097 124.48123864 199.20019673 127.82975312 199.21115112 131.17831421 C199.22498552 135.4647814 199.22896102 139.7511567 199.22614455 144.03764415 C199.2267325 145.60129778 199.23062902 147.16495501 199.23843026 148.7285893 C199.36765146 175.9171045 192.13973585 197.29733074 173 217 C164.36291123 225.48798649 154.4795373 232.01492919 144 238 C143.20561523 238.45407227 142.41123047 238.90814453 141.59277344 239.37597656 C131.77636932 244.90941511 121.77902946 249.78265101 111.25 253.8125 C110.35780762 254.16844238 109.46561523 254.52438477 108.54638672 254.89111328 C102.35656457 257.13697796 98.20645538 257.11505306 92 255 C90.7521875 254.59523438 89.504375 254.19046875 88.21875 253.7734375 C55.34126805 241.4098466 21.00711537 222.44861955 5.44207382 189.3344593 C0.38310414 177.63677207 -0.57225564 167.13926588 -0.45410156 154.62158203 C-0.45287321 152.89776076 -0.45341531 151.17393748 -0.45556259 149.45011711 C-0.45645754 144.87608947 -0.43344706 140.30248909 -0.40512085 135.7285614 C-0.38216803 131.42050989 -0.38125907 127.11255696 -0.37841797 122.80444336 C-0.35751357 110.24457336 -0.30166847 97.68478112 -0.25 85.125 C-0.1675 57.03375 -0.085 28.9425 0 0 Z M15 15 C14.938125 39.8325 14.87625 64.665 14.8125 90.25 C14.78518799 98.0762207 14.75787598 105.90244141 14.72973633 113.96582031 C14.71969988 121.01229661 14.71969988 121.01229661 14.71366882 128.05877686 C14.71088621 131.18498183 14.69969334 134.31103228 14.68327332 137.43719482 C14.66254569 141.43706344 14.65655404 145.43671053 14.66078317 149.43662786 C14.65990012 150.89692729 14.65404065 152.35723526 14.64235461 153.81748819 C14.49618616 172.98811763 19.99795492 188.57032398 33.30126953 202.4284668 C46.60087993 215.77564967 61.90129891 225.11487584 78.88916016 233.00195312 C80.33713858 233.68658599 81.77403772 234.39500483 83.20068359 235.12304688 C93.70575603 240.54503574 93.70575603 240.54503574 105.08984375 239.73583984 C107.79933567 238.63930041 110.39610242 237.39257791 112.98486328 236.03662109 C115.03123549 234.98393193 117.10197034 234.05559566 119.21484375 233.14453125 C133.73653934 226.79905559 147.19312879 218.6151839 159 208 C159.85078125 207.24332031 160.7015625 206.48664063 161.578125 205.70703125 C172.74232354 195.21062986 182.47770469 180.75389478 183.12304783 164.99530315 C183.12166514 163.30980468 183.12166514 163.30980468 183.12025452 161.59025574 C183.12163201 160.29869914 183.12300951 159.00714254 183.12442875 157.67644787 C183.12088234 156.24678208 183.11724445 154.81711652 183.11352539 153.38745117 C183.11321894 151.8549592 183.11335274 150.32246708 183.11389065 148.78997517 C183.11411619 144.69003172 183.1083248 140.59011752 183.10128021 136.49018097 C183.0955808 132.64144296 183.09531685 128.79271203 183.09460449 124.94396973 C183.08935939 113.69180928 183.07539822 102.43965427 183.0625 91.1875 C183.041875 66.045625 183.02125 40.90375 183 15 C127.56 15 72.12 15 15 15 Z " fill="#00083C" transform="translate(5,117)"/>
<path d="M0 0 C6.09695534 4.30639969 11.93144801 10.10711467 13.6015625 17.609375 C13.83682693 21.97711023 13.73704631 26.22873173 13.6015625 30.609375 C7.9915625 30.609375 2.3815625 30.609375 -3.3984375 30.609375 C-3.98625 28.0415625 -3.98625 28.0415625 -4.5859375 25.421875 C-6.35209545 19.02263294 -8.70844409 16.23457935 -14.3984375 12.796875 C-20.82486278 10.32517297 -28.61566993 10.64979998 -35.0234375 12.859375 C-38.24038493 15.22975732 -40.06248257 16.61977524 -40.75 20.69140625 C-41.00528917 24.74244231 -40.84707133 26.95137872 -38.5234375 30.359375 C-31.45223567 35.45064031 -23.51950681 38.38082268 -15.4609375 41.546875 C-3.35505087 46.32818221 6.49223073 50.2641331 13.4765625 61.671875 C16.01606493 68.35318498 15.68632101 77.31237288 13.4765625 84.046875 C9.30324024 92.98426377 2.60533532 97.028459 -6.3984375 100.609375 C-18.7865045 104.58649636 -33.41658665 103.70331254 -45.2265625 98.3203125 C-52.53790857 94.22683431 -58.2296547 89.02917889 -60.9375 80.9375 C-61.87088989 76.22309003 -61.79583977 71.38584457 -61.3984375 66.609375 C-59.57727747 64.78821497 -57.09171986 65.4770242 -54.671875 65.47265625 C-53.92164063 65.47652344 -53.17140625 65.48039062 -52.3984375 65.484375 C-51.64820313 65.48050781 -50.89796875 65.47664063 -50.125 65.47265625 C-44.52504803 65.48276447 -44.52504803 65.48276447 -43.3984375 66.609375 C-43.15499799 68.35744667 -42.92869872 70.1079192 -42.7109375 71.859375 C-41.98535403 75.91843613 -41.58473714 77.3912681 -38.8359375 80.609375 C-31.10890594 85.10510245 -23.818458 86.84995867 -14.97265625 85.140625 C-10.9625074 84.03799815 -8.75304264 82.96398014 -5.7734375 79.984375 C-3.91922775 75.4331329 -3.70093084 72.23616374 -5.3984375 67.609375 C-10.10875679 62.71669208 -16.30715739 60.05143943 -22.5234375 57.609375 C-23.35020996 57.27035156 -24.17698242 56.93132812 -25.02880859 56.58203125 C-28.81414249 55.03072488 -32.6147459 53.52362659 -36.4296875 52.046875 C-45.5104455 48.4145718 -54.73615321 43.61405734 -58.80859375 34.13671875 C-60.70307031 26.01932579 -60.84057724 15.93736879 -56.78125 8.5 C-44.46150721 -8.34394212 -17.16583982 -9.95283221 0 0 Z " fill="#00083C" transform="translate(690.3984375,190.390625)"/>
<path d="M0 0 C2.81256281 -0.02684312 5.62487241 -0.04676188 8.4375 -0.0625 C9.23994141 -0.07087891 10.04238281 -0.07925781 10.86914062 -0.08789062 C12.91295221 -0.0965143 14.95683902 -0.0522815 17 0 C18.9230889 1.9230889 18.25321838 5.47070485 18.31640625 8.09765625 C18.33718735 8.80651474 18.35796844 9.51537323 18.37937927 10.24571228 C18.44494598 12.51787305 18.5037923 14.79015264 18.5625 17.0625 C18.60567849 18.59962183 18.64929255 20.1367315 18.69335938 21.67382812 C18.80063449 25.4490959 18.90188137 29.2244836 19 33 C19.77085937 32.36578125 20.54171875 31.7315625 21.3359375 31.078125 C27.31315338 26.41554604 33.7029571 26.39357 41 27 C49.09226939 28.21987942 54.69032774 31.80888017 60 38 C68.19713512 50.43565377 68.85842318 66.53581037 66.3125 80.87109375 C63.51932822 90.75193891 59.2076043 98.46372048 50.2890625 103.84765625 C43.68471039 107.17237275 36.01529263 108.29598712 28.79296875 106.4296875 C25.09062284 105.12459339 21.98376196 103.61079171 19 101 C18.87625 101.639375 18.7525 102.27875 18.625 102.9375 C18.41875 103.618125 18.2125 104.29875 18 105 C14.96576019 106.5171199 11.82495206 106.18439257 8.5 106.1875 C7.46552734 106.20586914 7.46552734 106.20586914 6.41015625 106.22460938 C4.60522506 106.22988695 2.80082158 106.12184458 1 106 C-1 104 -1 104 -1.24888897 102.16651917 C-1.2483442 101.41877731 -1.24779943 100.67103546 -1.24723816 99.90063477 C-1.25143265 99.04253204 -1.25562714 98.18442932 -1.25994873 97.30032349 C-1.25432922 96.3568808 -1.24870972 95.41343811 -1.24291992 94.44140625 C-1.24481827 93.44946259 -1.24671661 92.45751892 -1.24867249 91.43551636 C-1.25238843 88.14443145 -1.24166437 84.85356542 -1.23046875 81.5625 C-1.2292773 79.28328477 -1.22882371 77.00406904 -1.2290802 74.72485352 C-1.22751392 69.94316544 -1.2192132 65.16155209 -1.20581055 60.37988281 C-1.18882053 54.23926276 -1.18499613 48.09872491 -1.18575573 41.95808411 C-1.18548427 37.25019541 -1.18000694 32.54232482 -1.17275429 27.83444214 C-1.16956382 25.56973406 -1.16759933 23.30502392 -1.16686058 21.04031372 C-1.16470103 17.87970458 -1.15596508 14.71918398 -1.14526367 11.55859375 C-1.14571686 10.61515106 -1.14617004 9.67170837 -1.14663696 8.69967651 C-1.14237198 7.84157379 -1.13810699 6.98347107 -1.13371277 6.09936523 C-1.13203692 5.35162338 -1.13036108 4.60388153 -1.12863445 3.83348083 C-1 2 -1 2 0 0 Z M23 47 C17.14288318 55.93490114 16.7632475 66.61843781 18.49609375 76.9609375 C20.09138496 82.96355867 22.41374795 86.84229648 27.8828125 90.1328125 C31.61189994 91.6602247 35.16476836 90.93994049 39 90 C43.81639342 87.17298647 46.01278125 83.37768627 47.56542969 78.06542969 C48.31920292 74.48288949 48.22615142 70.89883246 48.25 67.25 C48.270625 66.4765625 48.29125 65.703125 48.3125 64.90625 C48.35860866 58.03606029 47.12351958 52.50466411 42.5625 47.125 C39.02675336 44.19291742 37.22658879 43.13628764 32.625 42.625 C28.18097829 43.08472638 26.33599367 44.03467229 23 47 Z " fill="#00083C" transform="translate(413,186)"/>
<path d="M0 0 C7.36150459 6.03302115 11.80287324 13.99748873 13.546875 23.37109375 C13.85254296 27.31206597 13.8716082 31.23226875 13.859375 35.18359375 C13.87548828 36.21291016 13.89160156 37.24222656 13.90820312 38.30273438 C13.9152349 49.41996721 11.32266536 58.95068393 3.796875 67.31640625 C-2.39503941 73.28361409 -9.06773495 75.41977511 -17.578125 75.74609375 C-24.15103824 75.5290636 -29.27371393 73.44389056 -34.453125 69.37109375 C-34.47818115 70.33523193 -34.5032373 71.29937012 -34.52905273 72.29272461 C-34.62297806 75.85797217 -34.72323439 79.42301808 -34.82543945 82.98803711 C-34.86884485 84.53323664 -34.91051571 86.07848589 -34.95043945 87.6237793 C-35.00800699 89.84048471 -35.07173924 92.05693855 -35.13671875 94.2734375 C-35.16178749 95.31563698 -35.16178749 95.31563698 -35.18736267 96.37889099 C-35.33925329 101.25722204 -35.33925329 101.25722204 -36.453125 102.37109375 C-39.1304388 102.47090589 -41.77616675 102.5098925 -44.453125 102.49609375 C-45.57847656 102.50189453 -45.57847656 102.50189453 -46.7265625 102.5078125 C-52.32651447 102.49770428 -52.32651447 102.49770428 -53.453125 101.37109375 C-53.55058811 100.02002055 -53.57944079 98.66391002 -53.58010864 97.30932617 C-53.58292847 96.43432465 -53.58574829 95.55932312 -53.58865356 94.6578064 C-53.58662933 93.69049591 -53.5846051 92.72318542 -53.58251953 91.7265625 C-53.58427185 90.71365143 -53.58602417 89.70074036 -53.58782959 88.65713501 C-53.59225022 85.29093744 -53.58930937 81.92479191 -53.5859375 78.55859375 C-53.58661048 76.23071279 -53.58758045 73.90283189 -53.58883667 71.57495117 C-53.59031393 66.68895806 -53.58815818 61.80298319 -53.58349609 56.91699219 C-53.5777988 50.63836719 -53.58107765 44.35978493 -53.58706856 38.0811615 C-53.59067341 33.27209142 -53.58953593 28.46303156 -53.58694077 23.65396118 C-53.58627129 21.33818558 -53.58710064 19.02240906 -53.58942032 16.70663452 C-53.59194561 13.47627284 -53.58810799 10.24598142 -53.58251953 7.015625 C-53.58454376 6.04831451 -53.58656799 5.08100403 -53.58865356 4.0843811 C-53.58583374 3.20937958 -53.58301392 2.33437805 -53.58010864 1.43286133 C-53.57973162 0.66815018 -53.57935459 -0.09656097 -53.57896614 -0.88444519 C-53.453125 -2.62890625 -53.453125 -2.62890625 -52.453125 -3.62890625 C-49.75657646 -3.70210246 -47.08621042 -3.72133162 -44.390625 -3.69140625 C-43.63201172 -3.68689453 -42.87339844 -3.68238281 -42.09179688 -3.67773438 C-40.21220629 -3.66591305 -38.33265601 -3.64797703 -36.453125 -3.62890625 C-35.793125 -1.97890625 -35.133125 -0.32890625 -34.453125 1.37109375 C-33.92203125 1.02175781 -33.3909375 0.67242187 -32.84375 0.3125 C-32.13734375 -0.14253906 -31.4309375 -0.59757813 -30.703125 -1.06640625 C-30.00703125 -1.51886719 -29.3109375 -1.97132813 -28.59375 -2.4375 C-20.04531819 -7.19529508 -7.86681691 -5.22366664 0 0 Z M-29.453125 14.37109375 C-35.7071177 22.94799803 -35.953448 32.84188908 -34.99609375 43.125 C-34.26905295 47.4715533 -32.97127503 50.77503058 -30.453125 54.37109375 C-29.6178125 55.57765625 -29.6178125 55.57765625 -28.765625 56.80859375 C-25.19296168 59.22255545 -21.71230254 59.53433749 -17.453125 59.37109375 C-12.26890421 57.87564544 -10.05219918 55.0650784 -7.48828125 50.5390625 C-3.17651529 41.50876021 -3.2286308 30.77436733 -6.453125 21.37109375 C-9.09631054 16.76683506 -11.34079868 13.07520252 -16.453125 11.37109375 C-23.50132648 10.90393409 -23.50132648 10.90393409 -29.453125 14.37109375 Z " fill="#00083C" transform="translate(774.453125,217.62890625)"/>
<path d="M0 0 C6.62851156 5.07155548 10.463571 12.26863414 11.66015625 20.45703125 C11.91283426 22.88137434 12.1171379 25.297522 12.26171875 27.73046875 C8.21528929 29.65480456 4.97223818 29.97347295 0.51171875 29.91796875 C-0.638125 29.91152344 -1.78796875 29.90507812 -2.97265625 29.8984375 C-5.73828125 29.73046875 -5.73828125 29.73046875 -6.73828125 28.73046875 C-7.00841563 27.17132358 -7.254352 25.60795544 -7.48828125 24.04296875 C-8.51129415 18.81589554 -9.79391771 16.32422219 -13.73828125 12.73046875 C-19.49862074 9.27426505 -25.11035492 8.89245508 -31.73828125 9.73046875 C-36.51267656 11.06729944 -39.62656853 12.99572445 -42.17578125 17.29296875 C-43.92753913 21.14683609 -44.86288818 23.98122978 -44.9152832 28.16674805 C-44.92811844 29.06165451 -44.94095367 29.95656097 -44.95417786 30.87858582 C-44.96156479 31.84419937 -44.96895172 32.80981293 -44.9765625 33.8046875 C-44.98463425 34.80248734 -44.99270599 35.80028717 -45.00102234 36.82832336 C-45.01485734 38.94241603 -45.0255821 41.05653099 -45.03344727 43.1706543 C-45.05062285 46.38829505 -45.09451048 49.60489826 -45.13867188 52.82226562 C-45.14880248 54.87889871 -45.15731743 56.93554052 -45.1640625 58.9921875 C-45.18157059 59.9476799 -45.19907867 60.9031723 -45.21711731 61.88761902 C-45.19339083 69.27316965 -43.66845971 74.80029029 -38.36328125 80.10546875 C-32.43242529 83.77695101 -26.38256337 84.81131986 -19.58984375 83.23046875 C-14.94989646 81.71256778 -12.41808328 79.95631041 -9.73828125 75.73046875 C-9.34640625 75.13234375 -8.95453125 74.53421875 -8.55078125 73.91796875 C-7.31865923 70.85675799 -7.31865923 70.85675799 -6.73828125 63.73046875 C-1.12828125 63.73046875 4.48171875 63.73046875 10.26171875 63.73046875 C13.02724601 69.26152328 11.82070031 72.914579 10.26171875 78.73046875 C7.40834623 86.90729748 1.9772936 92.51194919 -5.61328125 96.54296875 C-17.90970267 102.17265566 -31.00638955 102.25056043 -43.73828125 97.73046875 C-52.71098703 93.40035701 -59.39156708 86.2160327 -62.78686523 76.83251953 C-64.23999371 71.58403024 -64.0631618 66.24834382 -64.07421875 60.83984375 C-64.08087555 59.69944641 -64.08753235 58.55904907 -64.09439087 57.38409424 C-64.10448973 54.97694505 -64.10920875 52.56976801 -64.10888672 50.16259766 C-64.11325035 46.50635888 -64.14957545 42.8513373 -64.1875 39.1953125 C-64.19337083 36.84766034 -64.19733844 34.5000025 -64.19921875 32.15234375 C-64.21358978 31.07176697 -64.22796082 29.99119019 -64.24276733 28.87786865 C-64.18243973 18.70432341 -61.83810626 9.89797813 -54.64453125 2.4453125 C-39.56236836 -11.12245288 -16.52782009 -10.50826866 0 0 Z " fill="#00083C" transform="translate(311.73828125,192.26953125)"/>
<path d="M0 0 C6.19504269 5.23270596 9.27573567 10.07291007 10.2890625 18.1640625 C10.44496046 22.20043388 10.45302548 26.23439326 10.45703125 30.2734375 C10.46202385 32.01817352 10.46202385 32.01817352 10.46711731 33.79815674 C10.47216824 36.24906011 10.4745262 38.69997033 10.47436523 41.15087891 C10.47656276 44.91450117 10.49476809 48.67783538 10.51367188 52.44140625 C10.51660388 54.82291566 10.51858997 57.20442647 10.51953125 59.5859375 C10.52671677 60.71610291 10.53390228 61.84626831 10.54130554 63.01068115 C10.53822891 64.05226379 10.53515228 65.09384644 10.53198242 66.16699219 C10.53340744 67.08599304 10.53483246 68.0049939 10.53630066 68.95184326 C10.2890625 71.1640625 10.2890625 71.1640625 8.2890625 73.1640625 C5.74677091 73.33607535 3.32756254 73.39663867 0.7890625 73.3515625 C0.09941406 73.35091797 -0.59023438 73.35027344 -1.30078125 73.34960938 C-6.42982701 73.30461775 -6.42982701 73.30461775 -8.7109375 72.1640625 C-9.3359375 70.1015625 -9.3359375 70.1015625 -9.7109375 68.1640625 C-10.37480469 68.51339844 -11.03867187 68.86273438 -11.72265625 69.22265625 C-12.60566406 69.67769531 -13.48867188 70.13273437 -14.3984375 70.6015625 C-15.26855469 71.05402344 -16.13867188 71.50648438 -17.03515625 71.97265625 C-25.19049062 75.60386352 -34.16964808 74.88074451 -42.45703125 72.06640625 C-47.90561267 69.88508509 -51.84585346 66.90993535 -54.79296875 61.8359375 C-57.1869298 54.86798279 -57.13228785 45.22480695 -54.0859375 38.4765625 C-49.74915097 31.62504211 -43.35418603 28.27950439 -35.7109375 26.1640625 C-30.98625985 25.7100187 -26.32655182 25.78209679 -21.5859375 25.9140625 C-19.72195313 25.94113281 -19.72195313 25.94113281 -17.8203125 25.96875 C-14.78302784 26.01547746 -11.74740811 26.08097659 -8.7109375 26.1640625 C-8.81535575 24.72557858 -8.93561648 23.28823913 -9.0625 21.8515625 C-9.12775879 21.05105469 -9.19301758 20.25054687 -9.26025391 19.42578125 C-9.96665601 15.88076008 -11.91272965 14.29603038 -14.7109375 12.1640625 C-19.75057182 10.48418439 -24.62206113 10.51347439 -29.5859375 12.3515625 C-32.86636322 13.88799771 -32.86636322 13.88799771 -34.1484375 16.8515625 C-34.3340625 17.6146875 -34.5196875 18.3778125 -34.7109375 19.1640625 C-41.35503708 19.37838829 -47.24299617 18.67639951 -53.7109375 17.1640625 C-53.3782076 10.8421944 -52.31640267 6.66413945 -47.7109375 2.1640625 C-34.30248601 -8.01512842 -14.28996179 -9.67763983 0 0 Z M-34.7734375 42.3515625 C-37.12360865 45.76310127 -37.63591977 48.03808714 -37.7109375 52.1640625 C-36.90633017 55.3824918 -35.86957579 56.05830364 -33.0859375 57.9140625 C-26.95325572 60.18542612 -21.46976969 59.7436912 -15.54296875 57.18359375 C-12.31142181 55.38522754 -10.10683607 53.56533648 -8.7109375 50.1640625 C-8.31394508 46.12711363 -8.41666987 42.20533795 -8.7109375 38.1640625 C-22.41851588 37.43858907 -22.41851588 37.43858907 -34.7734375 42.3515625 Z " fill="#00083C" transform="translate(855.7109375,218.8359375)"/>
<path d="M0 0 C5.76898803 4.18251632 8.80625929 9.18699276 10.0625 16.1875 C10.32965947 20.5005342 10.29532248 24.80124277 10.2578125 29.12109375 C10.2549826 30.35416763 10.25215271 31.58724152 10.24923706 32.85768127 C10.2380786 36.78022125 10.21298151 40.7025295 10.1875 44.625 C10.17633396 47.29101228 10.16833976 49.95702239 10.16015625 52.62304688 C10.13815341 59.14460977 10.10471878 65.66603832 10.0625 72.1875 C7.04359074 73.69695463 3.93536494 73.49398821 0.625 73.5625 C-0.05626953 73.59988281 -0.73753906 73.63726562 -1.43945312 73.67578125 C-3.43359375 73.7109375 -3.43359375 73.7109375 -6.9375 73.1875 C-8.91015625 70.6640625 -8.91015625 70.6640625 -9.9375 68.1875 C-10.60136719 68.53683594 -11.26523437 68.88617188 -11.94921875 69.24609375 C-12.83222656 69.70113281 -13.71523438 70.15617187 -14.625 70.625 C-15.49511719 71.07746094 -16.36523438 71.52992188 -17.26171875 71.99609375 C-25.34827853 75.59667876 -34.38071254 74.94782746 -42.61328125 72.15625 C-48.43310139 69.73050984 -52.70974842 66.58007864 -55.2734375 60.68359375 C-57.21543339 53.38397391 -57.02397183 45.63843524 -54 38.6875 C-50.27068484 32.26420364 -44.2954696 28.46098844 -37.17675781 26.55371094 C-32.00656779 25.70817179 -26.72181358 25.98843172 -21.5 26.0625 C-19.68725586 26.07603516 -19.68725586 26.07603516 -17.83789062 26.08984375 C-14.87088722 26.11329832 -11.90429857 26.14612206 -8.9375 26.1875 C-9.05547559 24.74917777 -9.18539466 23.31183202 -9.3203125 21.875 C-9.39137207 21.07449219 -9.46243164 20.27398437 -9.53564453 19.44921875 C-10.1158962 16.1834524 -11.55537382 14.42950111 -13.9375 12.1875 C-19.17294264 10.44235245 -24.11406022 10.54591934 -29.3125 12.375 C-32.20459872 14.37192531 -33.24407188 16.16210649 -34.9375 19.1875 C-37.54202271 19.04663398 -40.14600197 18.90001536 -42.75 18.75 C-43.48798828 18.71068359 -44.22597656 18.67136719 -44.98632812 18.63085938 C-48.16821342 18.44368965 -50.89912378 18.20029207 -53.9375 17.1875 C-54.07007264 10.02857734 -51.45757171 6.48914145 -46.55078125 1.39453125 C-34.07953161 -9.137989 -13.34549389 -8.29467075 0 0 Z M-35.9375 43.1875 C-38.03851595 45.8615203 -37.93596976 47.23034685 -37.8125 50.6875 C-36.86006805 54.49722781 -36.01543835 55.83378244 -32.9375 58.1875 C-27.36336747 60.04554418 -21.99474432 59.99381384 -16.625 57.5 C-13.14042977 55.47602807 -10.7843916 53.8812832 -8.9375 50.1875 C-8.62195229 46.16426666 -8.70634101 42.21351908 -8.9375 38.1875 C-23.21337814 37.550705 -23.21337814 37.550705 -35.9375 43.1875 Z " fill="#00083C" transform="translate(988.9375,218.8125)"/>
<path d="M0 0 C8.75628739 7.39816935 11.82235676 17.13487602 12.80859375 28.33496094 C13.00002781 32.31870366 12.98932955 36.27821059 12.625 40.25 C11.625 41.25 11.625 41.25 9.68247986 41.37025452 C8.83198563 41.36803391 7.98149139 41.36581329 7.10522461 41.36352539 C5.66384377 41.36341209 5.66384377 41.36341209 4.19334412 41.36329651 C3.148564 41.35813522 2.10378387 41.35297394 1.02734375 41.34765625 C-0.03665146 41.3462413 -1.10064667 41.34482635 -2.19688416 41.34336853 C-5.61045083 41.33775064 -9.023953 41.32519511 -12.4375 41.3125 C-14.74544176 41.30748731 -17.05338455 41.302924 -19.36132812 41.29882812 C-25.03257426 41.2877754 -30.70378253 41.27101987 -36.375 41.25 C-35.93248545 42.69128461 -35.48002429 44.12951761 -35.0234375 45.56640625 C-34.77255371 46.36763916 -34.52166992 47.16887207 -34.26318359 47.99438477 C-32.63944434 52.11800405 -29.87006168 54.37788068 -26.125 56.5625 C-19.45984972 58.22878757 -14.11429609 57.7340931 -8.0859375 54.41015625 C-6.17265762 53.20254239 -6.17265762 53.20254239 -4.1875 50.9375 C-3.589375 50.380625 -2.99125 49.82375 -2.375 49.25 C1.7989968 49.5560931 3.92436547 51.00364578 6.9375 53.8125 C7.63488281 54.45316406 8.33226562 55.09382813 9.05078125 55.75390625 C9.57027344 56.24761719 10.08976563 56.74132812 10.625 57.25 C9.96810585 62.49615462 7.97241023 64.33898598 4.015625 67.60546875 C-5.18630201 73.93555252 -15.48912966 74.95884737 -26.375 74.25 C-36.81834051 72.30970723 -44.31819203 66.94132573 -50.375 58.25 C-53.27925154 51.91723375 -55.07937786 45.21640002 -55.375 38.25 C-55.43494141 36.86167969 -55.43494141 36.86167969 -55.49609375 35.4453125 C-55.76227991 23.13811689 -53.72143788 11.72936048 -45.125 2.375 C-33.4365887 -8.44571265 -12.86923635 -9.01328538 0 0 Z M-32.375 14.25 C-35.52872457 18.7061477 -36.375 21.71973335 -36.375 27.25 C-26.475 27.25 -16.575 27.25 -6.375 27.25 C-6.82221842 18.74614514 -6.82221842 18.74614514 -11.375 13.25 C-18.28016458 8.6988688 -26.17269274 8.61296632 -32.375 14.25 Z " fill="#00083C" transform="translate(548.375,218.75)"/>
<path d="M0 0 C2.77245014 -0.13487595 5.53837088 -0.23400807 8.3125 -0.3125 C9.49102539 -0.3753418 9.49102539 -0.3753418 10.69335938 -0.43945312 C11.45068359 -0.45556641 12.20800781 -0.47167969 12.98828125 -0.48828125 C13.68477783 -0.51446533 14.38127441 -0.54064941 15.09887695 -0.56762695 C17 0 17 0 18.5546875 1.87109375 C20.60048928 6.29997814 21.84842641 10.85334074 23.13671875 15.55078125 C23.42102249 16.56472458 23.70532623 17.57866791 23.99824524 18.62333679 C24.90160028 21.85116852 25.79467355 25.08174202 26.6875 28.3125 C27.29945352 30.50604827 27.91207613 32.69941 28.52539062 34.89257812 C30.02468786 40.2595811 31.51556143 45.62886954 33 51 C35.30619516 45.09544077 37.18033017 39.16992668 38.8828125 33.06640625 C39.14254852 32.14786362 39.40228455 31.22932098 39.66989136 30.28294373 C40.49149168 27.37702868 41.30876998 24.46992772 42.125 21.5625 C43.2071932 17.70856706 44.29367396 13.85588137 45.3828125 10.00390625 C45.6307254 9.11546524 45.87863831 8.22702423 46.13406372 7.31166077 C46.36455414 6.49668625 46.59504456 5.68171173 46.83251953 4.84204102 C47.03442902 4.12226578 47.2363385 3.40249054 47.44436646 2.66090393 C48 1 48 1 49 0 C51.86267567 -0.07325168 54.700719 -0.09238205 57.5625 -0.0625 C58.36880859 -0.05798828 59.17511719 -0.05347656 60.00585938 -0.04882812 C62.00393756 -0.03700518 64.00197783 -0.01906914 66 0 C67.74890156 4.13832558 66.09551383 7.69048475 64.73022461 11.69921875 C64.47666199 12.47056656 64.22309937 13.24191437 63.96185303 14.03663635 C63.11913744 16.59052504 62.26120027 19.13899816 61.40234375 21.6875 C60.8092839 23.46885669 60.21689172 25.25043578 59.62513733 27.03222656 C58.37994764 30.77360932 57.12734094 34.51240271 55.86938477 38.24951172 C54.26813191 43.00810054 52.68414137 47.772213 51.10568905 52.53840637 C49.88290344 56.22469713 48.65130981 59.90799939 47.41711617 63.59048462 C46.83056741 65.34366938 46.24654667 67.09770224 45.66523552 68.85263062 C36.01283471 97.93565844 36.01283471 97.93565844 28.03515625 103.328125 C27.38417969 103.63234375 26.73320312 103.9365625 26.0625 104.25 C25.41410156 104.56453125 24.76570313 104.8790625 24.09765625 105.203125 C17.28176656 107.79240153 10.17990433 107.06710191 3 107 C3 102.05 3 97.1 3 92 C4.876875 91.7525 6.75375 91.505 8.6875 91.25 C13.49023524 90.43070987 16.75737662 89.8702279 20 86 C22.95419049 80.78093013 23.10836812 77.79196984 22 72 C21.3090317 69.62267099 20.55793737 67.26229175 19.75927734 64.91894531 C19.5331929 64.24974564 19.30710846 63.58054596 19.07417297 62.8910675 C18.58683596 61.45083297 18.09676294 60.01152182 17.60419846 58.57306671 C16.82528556 56.29699887 16.05459486 54.01829365 15.28604126 51.7387085 C13.10088844 45.2625087 10.90026379 38.7915924 8.69628906 32.32177734 C7.34546497 28.35457424 6.0033504 24.38450915 4.66637039 20.41262054 C4.15549136 18.90114098 3.64111687 17.39083826 3.12321091 15.88175201 C2.40134018 13.77830815 1.6904763 11.6714404 0.98193359 9.56347656 C0.57413666 8.36547424 0.16633972 7.16747192 -0.2538147 5.9331665 C-1 3 -1 3 0 0 Z " fill="#00083C" transform="translate(334,214)"/>
<path d="M0 0 C-0.30904171 2.27130656 -0.62234907 4.54203305 -0.9375 6.8125 C-1.11152344 8.07707031 -1.28554688 9.34164062 -1.46484375 10.64453125 C-2 14 -2 14 -3 17 C-3.61746094 16.96519531 -4.23492188 16.93039063 -4.87109375 16.89453125 C-11.0297525 16.69767914 -16.45134097 17.13508013 -22 20 C-25.91937021 23.91937021 -27.10673485 27.19019383 -27.18945312 32.63916016 C-27.20617065 33.57668121 -27.22288818 34.51420227 -27.2401123 35.48013306 C-27.25368774 36.48957977 -27.26726318 37.49902649 -27.28125 38.5390625 C-27.29965942 39.5756601 -27.31806885 40.61225769 -27.33703613 41.68026733 C-27.41583516 46.12300152 -27.48364718 50.56588748 -27.55224609 55.00878906 C-27.60382188 58.24812676 -27.66111652 61.48732786 -27.71875 64.7265625 C-27.73232544 65.74005768 -27.74590088 66.75355286 -27.7598877 67.79776001 C-27.77660522 68.72897675 -27.79332275 69.66019348 -27.81054688 70.61962891 C-27.82933899 71.85514999 -27.82933899 71.85514999 -27.84851074 73.1156311 C-28 75 -28 75 -29 76 C-31.6773138 76.09981214 -34.32304175 76.13879875 -37 76.125 C-38.12535156 76.13080078 -38.12535156 76.13080078 -39.2734375 76.13671875 C-44.87338947 76.12661053 -44.87338947 76.12661053 -46 75 C-46.10025695 72.63238425 -46.13618935 70.29392927 -46.12939453 67.92578125 C-46.13114685 67.18597015 -46.13289917 66.44615906 -46.13470459 65.68392944 C-46.1391231 63.22676277 -46.13618513 60.76966747 -46.1328125 58.3125 C-46.13348554 56.61238593 -46.13445557 54.91227195 -46.13571167 53.2121582 C-46.13718864 49.64435919 -46.13503411 46.07658517 -46.13037109 42.50878906 C-46.1246738 37.92511506 -46.12795281 33.34149961 -46.13394356 28.75782776 C-46.13754919 25.24580439 -46.13641057 21.73379502 -46.13381577 18.22177124 C-46.1331465 16.53119907 -46.13397489 14.84062564 -46.13629532 13.15005493 C-46.13882189 10.79140843 -46.13498121 8.43285805 -46.12939453 6.07421875 C-46.13141876 5.36872894 -46.13344299 4.66323914 -46.13552856 3.93637085 C-46.11426271 -0.88573729 -46.11426271 -0.88573729 -45 -2 C-42.30345146 -2.07319621 -39.63308542 -2.09242537 -36.9375 -2.0625 C-36.17888672 -2.05798828 -35.42027344 -2.05347656 -34.63867188 -2.04882812 C-32.75908129 -2.0370068 -30.87953101 -2.01907078 -29 -2 C-28.34 0.31 -27.68 2.62 -27 5 C-26.57589844 4.59007812 -26.15179687 4.18015625 -25.71484375 3.7578125 C-18.51482902 -2.85670653 -8.69711914 -5.79807943 0 0 Z " fill="#00083D" transform="translate(928,216)"/>
<path d="M0 0 C-0.31014392 2.08368538 -0.6232052 4.16693668 -0.9375 6.25 C-1.11152344 7.41015625 -1.28554688 8.5703125 -1.46484375 9.765625 C-1.8727736 12.23106961 -2.33901303 14.59424562 -3 17 C-3.61746094 16.96519531 -4.23492188 16.93039063 -4.87109375 16.89453125 C-11.0297525 16.69767914 -16.45134097 17.13508013 -22 20 C-25.91937021 23.91937021 -27.10673485 27.19019383 -27.18945312 32.63916016 C-27.20617065 33.57668121 -27.22288818 34.51420227 -27.2401123 35.48013306 C-27.25368774 36.48957977 -27.26726318 37.49902649 -27.28125 38.5390625 C-27.29965942 39.5756601 -27.31806885 40.61225769 -27.33703613 41.68026733 C-27.41583516 46.12300152 -27.48364718 50.56588748 -27.55224609 55.00878906 C-27.60382188 58.24812676 -27.66111652 61.48732786 -27.71875 64.7265625 C-27.73232544 65.74005768 -27.74590088 66.75355286 -27.7598877 67.79776001 C-27.77660522 68.72897675 -27.79332275 69.66019348 -27.81054688 70.61962891 C-27.82933899 71.85514999 -27.82933899 71.85514999 -27.84851074 73.1156311 C-28 75 -28 75 -29 76 C-31.6773138 76.09981214 -34.32304175 76.13879875 -37 76.125 C-38.12535156 76.13080078 -38.12535156 76.13080078 -39.2734375 76.13671875 C-44.87338947 76.12661053 -44.87338947 76.12661053 -46 75 C-46.10025695 72.63238425 -46.13618935 70.29392927 -46.12939453 67.92578125 C-46.13114685 67.18597015 -46.13289917 66.44615906 -46.13470459 65.68392944 C-46.1391231 63.22676277 -46.13618513 60.76966747 -46.1328125 58.3125 C-46.13348554 56.61238593 -46.13445557 54.91227195 -46.13571167 53.2121582 C-46.13718864 49.64435919 -46.13503411 46.07658517 -46.13037109 42.50878906 C-46.1246738 37.92511506 -46.12795281 33.34149961 -46.13394356 28.75782776 C-46.13754919 25.24580439 -46.13641057 21.73379502 -46.13381577 18.22177124 C-46.1331465 16.53119907 -46.13397489 14.84062564 -46.13629532 13.15005493 C-46.13882189 10.79140843 -46.13498121 8.43285805 -46.12939453 6.07421875 C-46.13141876 5.36872894 -46.13344299 4.66323914 -46.13552856 3.93637085 C-46.11426271 -0.88573729 -46.11426271 -0.88573729 -45 -2 C-42.30345146 -2.07319621 -39.63308542 -2.09242537 -36.9375 -2.0625 C-36.17888672 -2.05798828 -35.42027344 -2.05347656 -34.63867188 -2.04882812 C-32.75908129 -2.0370068 -30.87953101 -2.01907078 -29 -2 C-28.34 0.31 -27.68 2.62 -27 5 C-26.57589844 4.59007812 -26.15179687 4.18015625 -25.71484375 3.7578125 C-18.51482902 -2.85670653 -8.69711914 -5.79807943 0 0 Z " fill="#00083C" transform="translate(622,216)"/>
<path d="M0 0 C4.21099521 3.49908853 8.04449374 7.27948853 10.6875 12.125 C10.6875 13.115 10.6875 14.105 10.6875 15.125 C6.70337302 18.22376543 6.70337302 18.22376543 3.71875 17.93359375 C1.1368748 16.90580882 0.14648025 15.61520541 -1.5625 13.4375 C-9.17163021 4.40971839 -20.41299697 -2.46483162 -32.3125 -3.875 C-48.66252102 -5.03016453 -62.50118814 -1.4462969 -75.59375 8.93359375 C-86.49089871 19.01345631 -92.04062561 32.95314031 -92.625 47.5625 C-92.50518075 58.27966653 -89.62214599 68.27775983 -83.484375 77.07421875 C-82.3125 79.125 -82.3125 79.125 -82.3125 83.125 C-85.3125 85.375 -85.3125 85.375 -88.3125 87.125 C-99.31187535 73.93330929 -103.65040559 58.17858529 -102.3125 41.125 C-100.44182102 26.00789151 -94.20031219 13.708258 -83.3125 3.125 C-82.69890625 2.49078125 -82.0853125 1.8565625 -81.453125 1.203125 C-58.90649463 -20.5726804 -23.61185957 -17.91971485 0 0 Z " fill="#00083D" transform="translate(144.3125,184.875)"/>
<path d="M0 0 C6.75 -0.125 6.75 -0.125 9 1 C9.2734375 3.5546875 9.2734375 3.5546875 9.375 6.875 C10.1849956 18.82896734 13.96548027 26.97896806 23 35 C32.10440845 41.37907566 41.01014654 42.91880425 52 42 C61.64475567 40.1312502 68.72062306 34.53506266 74.6640625 26.84765625 C79.02774026 20.20006527 80.28919666 13.81883673 81 6 C83.97 6 86.94 6 90 6 C91.00659829 17.16205656 87.97603384 26.52001768 81.1875 35.4375 C73.91989254 43.81694293 64.18860631 50.39927019 53 52 C37.26848699 52.87866668 26.8076974 49.92308052 13.8125 40.75 C4.93037936 32.06525982 -0.11108306 21.93433826 -0.26586914 9.45556641 C-0.24315521 6.29867952 -0.14407923 3.15373433 0 0 Z " fill="#00083C" transform="translate(59,226)"/>
<path d="M0 0 C3.88843557 12.29247374 0.60526857 27.45602935 -4.78125 38.71875 C-13.64101628 55.30241509 -25.95153899 66.12853863 -44 72 C-58.38801789 75.66074886 -72.25146249 74.0615335 -86 69 C-85.5020163 65.26512223 -85.12508244 63.18762365 -83 60 C-82.28714844 60.20496094 -81.57429688 60.40992188 -80.83984375 60.62109375 C-65.12974682 65.04021927 -50.99503127 65.43544009 -36.125 57.75 C-22.42458082 49.78580001 -14.65785682 39.16690566 -10 24 C-8.89519763 19.01809616 -8.88160994 14.19809764 -8.9375 9.125 C-8.94201172 8.34125 -8.94652344 7.5575 -8.95117188 6.75 C-8.96285907 4.83329986 -8.98079092 2.91663952 -9 1 C-5.90226756 0.15937603 -3.21667249 -0.08935201 0 0 Z " fill="#00083C" transform="translate(165,221)"/>
<path d="M0 0 C5.81372309 4.12277514 9.59398083 9.84913826 11.0078125 16.8359375 C12.17545729 24.43218842 11.07874783 31.55656767 6.921875 38.15234375 C1.54860323 45.0722249 -4.75577777 48.94121106 -13.42578125 50.125 C-18.66188633 50.38472743 -23.67162555 49.10059595 -28.39453125 46.84765625 C-28.72453125 46.18765625 -29.05453125 45.52765625 -29.39453125 44.84765625 C-28.6171875 43.12109375 -28.6171875 43.12109375 -27.45703125 41.22265625 C-26.77640625 40.10890625 -26.09578125 38.99515625 -25.39453125 37.84765625 C-23.94046875 38.37359375 -23.94046875 38.37359375 -22.45703125 38.91015625 C-16.6128533 40.55457069 -11.4607928 39.90028006 -6.08203125 37.16015625 C-1.83197914 33.50313467 0.21830551 30.44793096 1.54296875 24.97265625 C1.88015278 20.44228619 0.97388682 16.72834126 -1.39453125 12.84765625 C-5.54391769 8.33617713 -9.34044162 5.75987984 -15.58203125 5.47265625 C-20.89379609 5.52464742 -24.35678967 7.52245731 -28.39453125 10.84765625 C-30.61486869 13.28286505 -31.34608187 14.7023081 -32.39453125 17.84765625 C-35.03453125 17.51765625 -37.67453125 17.18765625 -40.39453125 16.84765625 C-41.14453125 15.28515625 -41.14453125 15.28515625 -41.39453125 12.84765625 C-38.23106196 5.55792266 -32.92011825 0.99066011 -26.20703125 -3.08984375 C-16.67822587 -5.74541246 -8.63021676 -4.82243288 0 0 Z " fill="#11ADA9" transform="translate(119.39453125,210.15234375)"/>
<path d="M0 0 C-0.33 2.97 -0.66 5.94 -1 9 C-2.464375 8.95875 -3.92875 8.9175 -5.4375 8.875 C-16.28706635 8.93595262 -26.19656727 12.14969981 -34 20 C-35.9375 20 -35.9375 20 -38 19 C-40.25 16.4375 -40.25 16.4375 -42 14 C-29.9855437 2.04487435 -16.75712321 -2.39850506 0 0 Z " fill="#00083C" transform="translate(112,188)"/>
<path d="M0 0 C2.61973836 1.65916763 2.94752555 2.83133214 3.875 5.8125 C4.02817911 9.71856732 3.05994354 11.71934918 1 15 C-2.21102274 16.60551137 -5.51699208 16.46807221 -9 16 C-11.5 14.5625 -11.5 14.5625 -13 12 C-13.48207192 8.93025468 -13.62382717 6.05169509 -13 3 C-9.3687559 -1.64756897 -5.41596667 -1.16056429 0 0 Z " fill="#11ADA9" transform="translate(109,225)"/>
</svg>
