<?xml version="1.0" encoding="UTF-8"?>
<svg version="1.1" xmlns="http://www.w3.org/2000/svg" width="2722" height="825">
<path d="M0 0 C2.87847384 1.30559317 4.94359022 2.69376911 7.17444324 4.92555428 C7.78071798 5.52723022 8.38699272 6.12890616 9.01163942 6.7488147 C9.66834727 7.41066612 10.32505512 8.07251753 11.00166321 8.75442505 C11.70659651 9.45694393 12.4115298 10.15946281 13.13782471 10.88327014 C15.50462807 13.24442668 17.86420036 15.61267975 20.22387695 17.98095703 C21.91709892 19.67310632 23.6107537 21.36482263 25.30480957 23.05613708 C29.43197274 27.17894957 33.55446287 31.30639148 37.67482368 35.43600149 C42.4771409 40.24870973 47.28468803 45.05617942 52.09244611 49.86345135 C60.67601956 58.44652404 69.25475187 67.03441926 77.83081055 75.625 C86.14295155 83.9512088 94.45856636 92.27392741 102.77807617 100.59277344 C103.54568845 101.36032578 103.54568845 101.36032578 104.32880805 102.14338423 C104.8396828 102.65421863 105.35055756 103.16505304 105.87691337 103.69136727 C115.35619154 113.16995409 124.83216919 122.65183451 134.30662966 132.13523678 C137.65142328 135.48303838 140.99718494 138.82987065 144.343256 142.17639542 C148.85585517 146.69000191 153.36588519 151.20616043 157.87397003 155.72427559 C159.52626831 157.37948598 161.1794032 159.03386174 162.83344841 160.68732643 C165.09708494 162.95046927 167.35760685 165.21667937 169.61738586 167.4836731 C170.26740155 168.13214018 170.91741724 168.78060726 171.58713037 169.44872487 C208.63958603 206.69573197 238.09851697 259.09324802 238.15821838 312.76965332 C238.16315636 313.72387287 238.16809434 314.67809241 238.17318195 315.6612277 C238.1884783 318.84250951 238.19689616 322.02377127 238.20532227 325.20507812 C238.21490698 327.49194514 238.2249174 329.7788104 238.23532104 332.06567383 C238.2623119 338.26333832 238.28335293 344.46101038 238.30332303 350.65870094 C238.32521853 357.13962807 238.35258977 363.62053202 238.37937927 370.10144043 C238.42359255 380.97581994 238.46443586 391.85020731 238.50268555 402.72460938 C238.54208246 413.92253549 238.58351866 425.12045101 238.62768555 436.31835938 C238.63040982 437.00924056 238.63313409 437.70012175 238.63594092 438.41193873 C238.64962109 441.87807831 238.66334122 445.34421774 238.67708123 448.81035709 C238.79091662 477.54021583 238.89768235 506.27009807 239 535 C239.58362791 534.41599237 240.16725581 533.83198475 240.76856941 533.23027992 C275.31993543 498.65656065 309.87389285 464.08543316 344.43124127 429.5176934 C348.57584325 425.37184063 352.72042347 421.2259661 356.86499023 417.08007812 C358.10271128 415.84196361 358.10271128 415.84196361 359.3654368 414.57883668 C372.7453974 401.19451871 386.12359165 387.80843653 399.50113981 374.42170739 C413.21652039 360.69699216 426.93378385 346.97416094 440.65281588 333.25309563 C449.12563716 324.77889873 457.59696689 316.30321632 466.06642521 307.82565832 C471.86570239 302.02111599 477.66679897 296.21839621 483.469361 290.41713762 C486.82257557 287.0645668 490.17495199 283.71116842 493.52518082 280.35561371 C496.58678581 277.28917691 499.6506464 274.2250135 502.71638829 271.16271281 C503.83033109 270.04919593 504.94341268 268.93481677 506.05558514 267.81953168 C507.55696788 266.31418866 509.06133666 264.81189762 510.56655788 263.31039429 C511.82362204 262.05276055 511.82362204 262.05276055 513.10608143 260.76972008 C515 259 515 259 516 259 C524.54833222 300.31576075 530.0689314 341.68820676 533.13445866 383.75186425 C533.3118769 386.17897587 533.49422552 388.60568657 533.67665005 391.03242636 C539.91145309 475.36057221 528.57118404 543.529452 472.25889587 609.01731873 C443.50789183 642.02388992 412.23827675 672.55841356 380.12153953 702.2538653 C377.61799303 704.56897958 375.11708695 706.88691909 372.61654329 709.20527601 C337.43949599 741.79383894 301.57695404 773.55780967 264.65478516 804.15844727 C263.99345625 804.70664867 263.33212734 805.25485007 262.65075816 805.81966363 C258.92523379 808.90496811 255.1925867 811.98130824 251.44864651 815.04424359 C250.33177808 815.95804457 249.21595083 816.87311979 248.10123429 817.78954457 C246.59577132 819.02530578 245.08412279 820.25352031 243.57210732 821.48125553 C242.3110561 822.50845741 242.3110561 822.50845741 241.0245291 823.55641085 C239 825 239 825 237 825 C237.06547425 824.45819096 237.1309485 823.91638191 237.19840682 823.35815442 C242.33864587 780.54334782 245.70870708 737.69750614 247.52003467 694.61583281 C247.58988515 692.95827734 247.66071806 691.30076298 247.73254406 689.64329195 C251.32978886 606.5872693 248.94886211 535.79078601 190.70736313 472.04941177 C177.09657388 457.30506027 162.42186841 443.75456574 147.375 430.5 C146.30812926 429.55720585 145.24131394 428.61434899 144.17455387 427.67142963 C120.39556727 406.68369729 95.89214261 386.64877862 70.15610695 368.09022713 C69.38233436 367.52851393 68.60856177 366.96680074 67.81134152 366.38806593 C66.39987397 365.36610238 64.98257748 364.35210607 63.55771136 363.34890783 C58.63795015 359.78815446 54.87094268 355.65723428 51 351 C50.04275193 349.92522096 49.08140619 348.8540545 48.11328125 347.7890625 C19.40280226 315.59223877 5.35364803 276.53487073 1 234 C0.91163156 233.14636777 0.82326311 232.29273554 0.73221684 231.41323566 C-0.23252635 220.694479 -0.13314406 209.99021906 -0.11352539 199.23706055 C-0.11324288 197.05783082 -0.11340249 194.87860101 -0.1139679 192.69937134 C-0.11425339 186.81808889 -0.10839676 180.93682706 -0.10139394 175.05554938 C-0.0951191 168.89631236 -0.09455334 162.73707481 -0.09336853 156.57783508 C-0.09026736 144.92995184 -0.08207039 133.28207805 -0.07201904 121.63419896 C-0.06082013 108.36692022 -0.05533795 95.09964101 -0.05032361 81.83235872 C-0.03988671 54.55490059 -0.02231087 27.27745082 0 0 Z " fill="#004B8C" transform="translate(0,0)"/>
<path d="M0 0 C2.87847384 1.30559317 4.94359022 2.69376911 7.17444324 4.92555428 C7.78071798 5.52723022 8.38699272 6.12890616 9.01163942 6.7488147 C9.66834727 7.41066612 10.32505512 8.07251753 11.00166321 8.75442505 C11.70659651 9.45694393 12.4115298 10.15946281 13.13782471 10.88327014 C15.50462807 13.24442668 17.86420036 15.61267975 20.22387695 17.98095703 C21.91709892 19.67310632 23.6107537 21.36482263 25.30480957 23.05613708 C29.43197274 27.17894957 33.55446287 31.30639148 37.67482368 35.43600149 C42.4771409 40.24870973 47.28468803 45.05617942 52.09244611 49.86345135 C60.67601956 58.44652404 69.25475187 67.03441926 77.83081055 75.625 C86.14295155 83.9512088 94.45856636 92.27392741 102.77807617 100.59277344 C103.54568845 101.36032578 103.54568845 101.36032578 104.32880805 102.14338423 C104.8396828 102.65421863 105.35055756 103.16505304 105.87691337 103.69136727 C115.35619154 113.16995409 124.83216919 122.65183451 134.30662966 132.13523678 C137.65142328 135.48303838 140.99718494 138.82987065 144.343256 142.17639542 C148.85585517 146.69000191 153.36588519 151.20616043 157.87397003 155.72427559 C159.52626831 157.37948598 161.1794032 159.03386174 162.83344841 160.68732643 C165.09708494 162.95046927 167.35760685 165.21667937 169.61738586 167.4836731 C170.26740155 168.13214018 170.91741724 168.78060726 171.58713037 169.44872487 C207.61817442 205.66895724 238.003506 257.74333023 238.12908131 310.15715933 C238.12616847 311.0443385 238.12325563 311.93151767 238.12025452 312.84558105 C238.12153615 314.28916103 238.12153615 314.28916103 238.12284368 315.76190424 C238.12448435 318.97084602 238.11900032 322.17973495 238.11352539 325.38867188 C238.11324319 327.69524128 238.1134019 330.00181077 238.1139679 332.30838013 C238.11425458 338.55978102 238.10837865 344.8111627 238.10139394 351.06255913 C238.09513896 357.59952573 238.0945549 364.13649278 238.09336853 370.67346191 C238.09078101 381.64201185 238.08436997 392.61055506 238.07543945 403.57910156 C238.0662528 414.87402308 238.0591781 426.16894268 238.05493164 437.46386719 C238.05466892 438.16072236 238.05440619 438.85757754 238.05413551 439.57554954 C238.05283042 443.07165713 238.05156672 446.56776473 238.05032361 450.06387234 C238.03996608 479.04258621 238.02228633 508.02129294 238 537 C235.09723687 535.68597218 233.02746544 534.27727785 230.77870464 532.02759361 C229.85361726 531.10940442 229.85361726 531.10940442 228.90984124 530.17266595 C228.24146054 529.49914169 227.57307985 528.82561743 226.88444519 528.13168335 C226.16726124 527.41691381 225.45007728 526.70214427 224.71116048 525.96571505 C222.30289864 523.56310061 219.90186748 521.15338766 217.50073242 518.74365234 C215.77795419 517.02194677 214.05474315 515.30067418 212.33113098 513.57980347 C208.13177829 509.38480165 203.93709504 505.18516616 199.74454566 500.98336785 C194.85826851 496.08670029 189.96676199 491.19527059 185.07504431 486.30403908 C176.34172803 477.57122356 167.61325287 468.83358521 158.88745117 460.09326172 C150.42980257 451.62154495 141.96867965 443.1533186 133.50366211 434.68896484 C132.9829596 434.16830229 132.4622571 433.64763975 131.92577573 433.11119954 C131.40595592 432.59142009 130.88613611 432.07164063 130.35056418 431.53611028 C120.70593279 421.89217019 111.06460168 412.24493664 101.42478808 402.59618097 C98.02138461 399.18976925 94.61701283 395.78432709 91.21233177 392.37919235 C86.62081338 387.78691741 82.03211255 383.19183842 77.4452343 378.59492874 C75.76391018 376.91069211 74.08174903 375.22729056 72.39867783 373.5447998 C70.09562996 371.24224551 67.79569558 368.93662431 65.49650574 366.63021851 C64.83481721 365.97007858 64.17312868 365.30993865 63.49138898 364.62979448 C59.69003067 360.80881034 56.06877638 356.87804256 52.5496071 352.79531825 C51.0918629 351.10642901 49.60963733 349.44373274 48.11328125 347.7890625 C19.40280226 315.59223877 5.35364803 276.53487073 1 234 C0.91163156 233.14636777 0.82326311 232.29273554 0.73221684 231.41323566 C-0.23252635 220.694479 -0.13314406 209.99021906 -0.11352539 199.23706055 C-0.11324288 197.05783082 -0.11340249 194.87860101 -0.1139679 192.69937134 C-0.11425339 186.81808889 -0.10839676 180.93682706 -0.10139394 175.05554938 C-0.0951191 168.89631236 -0.09455334 162.73707481 -0.09336853 156.57783508 C-0.09026736 144.92995184 -0.08207039 133.28207805 -0.07201904 121.63419896 C-0.06082013 108.36692022 -0.05533795 95.09964101 -0.05032361 81.83235872 C-0.03988671 54.55490059 -0.02231087 27.27745082 0 0 Z " fill="#00A261" transform="translate(0,0)"/>
<path d="M0 0 C0.80926437 -0.00570007 1.61852875 -0.01140015 2.45231628 -0.01727295 C4.16082477 -0.02666774 5.86935093 -0.03323479 7.57788086 -0.03710938 C10.12323078 -0.04670632 12.66773324 -0.07773664 15.21289062 -0.109375 C30.41471632 -0.20839979 45.31029024 1.53285296 59.91796875 5.890625 C60.78381592 6.14553711 61.64966309 6.40044922 62.54174805 6.66308594 C82.27295901 12.69652226 99.87188186 22.5700727 115.35546875 36.203125 C116.27972656 36.99460938 117.20398437 37.78609375 118.15625 38.6015625 C124.64266442 44.28951096 130.14018461 50.34042999 135.35546875 57.203125 C136.14566406 58.21632813 136.93585937 59.22953125 137.75 60.2734375 C152.69211168 79.91214875 161.75714455 102.84830018 167.66796875 126.640625 C167.89846924 127.55489258 168.12896973 128.46916016 168.36645508 129.41113281 C172.53056918 147.26651153 173.85925978 165.32428633 173.74658203 183.60986328 C173.7304715 186.7025966 173.74656747 189.79402388 173.765625 192.88671875 C173.78585111 211.23134286 171.96595832 229.33988742 167.66796875 247.203125 C167.28342529 248.81755493 167.28342529 248.81755493 166.89111328 250.46459961 C159.04546319 282.27892074 145.1574566 312.52094144 123.35546875 337.203125 C122.90204102 337.72213379 122.44861328 338.24114258 121.98144531 338.77587891 C115.32622699 346.35802643 108.44851551 353.12517064 100.35546875 359.203125 C99.82195801 359.6062793 99.28844727 360.00943359 98.73876953 360.42480469 C73.37927801 379.46820929 42.81874241 392.22483904 10.7109375 392.40625 C9.90167313 392.41195007 9.09240875 392.41765015 8.25862122 392.42352295 C6.55011273 392.43291774 4.84158657 392.43948479 3.13305664 392.44335938 C0.58770672 392.45295632 -1.95679574 392.48398664 -4.50195312 392.515625 C-19.70377882 392.61464979 -34.59935274 390.87339704 -49.20703125 386.515625 C-50.07287842 386.26071289 -50.93872559 386.00580078 -51.83081055 385.74316406 C-71.56202151 379.70972774 -89.16094436 369.8361773 -104.64453125 356.203125 C-105.56878906 355.41164063 -106.49304687 354.62015625 -107.4453125 353.8046875 C-113.93172692 348.11673904 -119.42924711 342.06582001 -124.64453125 335.203125 C-125.43472656 334.18992187 -126.22492188 333.17671875 -127.0390625 332.1328125 C-141.98117418 312.49410125 -151.04620705 289.55794982 -156.95703125 265.765625 C-157.18753174 264.85135742 -157.41803223 263.93708984 -157.65551758 262.99511719 C-161.81963168 245.13973847 -163.14832228 227.08196367 -163.03564453 208.79638672 C-163.019534 205.7036534 -163.03562997 202.61222612 -163.0546875 199.51953125 C-163.07523525 181.04929902 -161.20809086 162.85706064 -156.83203125 144.890625 C-156.444104 143.26447266 -156.444104 143.26447266 -156.04833984 141.60546875 C-152.17268005 125.7554052 -146.7165285 110.89987331 -139.64453125 96.203125 C-139.3005127 95.48769531 -138.95649414 94.77226562 -138.60205078 94.03515625 C-131.03834471 78.54807138 -121.48510307 64.73478078 -109.64453125 52.203125 C-108.49389098 50.85304042 -107.34786165 49.49900911 -106.20703125 48.140625 C-80.56306389 19.00768249 -38.68153305 0.2185529 0 0 Z M-59.64453125 42.203125 C-60.21171875 42.6259375 -60.77890625 43.04875 -61.36328125 43.484375 C-88.9298641 64.80946739 -97.66163301 105.17327463 -101.86328125 137.6875 C-102.78359475 145.19913287 -103.50851613 152.63005319 -103.64453125 160.203125 C-103.66499512 161.19763672 -103.68545898 162.19214844 -103.70654297 163.21679688 C-104.80677589 226.10283714 -95.93899705 293.94565666 -50.64453125 341.203125 C-33.69486557 358.23138264 -11.37173746 370.04317604 12.98828125 371.234375 C34.3970891 371.03568537 53.90302324 363.99760897 70.35546875 350.203125 C71.84046875 349.089375 71.84046875 349.089375 73.35546875 347.953125 C96.88217991 328.01081582 106.9627019 293.51045363 111.35546875 264.203125 C111.52103271 263.11330322 111.52103271 263.11330322 111.68994141 262.00146484 C121.09595768 198.32199407 114.06999584 121.27041538 75.546875 67.6875 C57.26781278 43.5405633 34.45346682 26.63322731 4.08203125 21.66796875 C-19.09492667 19.17859179 -41.99979221 27.35913819 -59.64453125 42.203125 Z " fill="#004B8D" transform="translate(2153.64453125,201.796875)"/>
<path d="M0 0 C11.4313376 -0.2717268 22.86051199 -0.49159979 34.29435539 -0.62174606 C39.60436372 -0.68422907 44.91203815 -0.7688834 50.22070312 -0.90527344 C55.34970927 -1.0362144 60.47647979 -1.10752007 65.60702896 -1.13852692 C67.55846475 -1.16060432 69.50978567 -1.20372251 71.4602623 -1.26876068 C87.52056703 -1.78270943 87.52056703 -1.78270943 92.33624268 2.5513916 C94.97722503 5.44099407 96.98258375 8.64890048 99 12 C100.41955347 13.90930831 101.85471984 15.80721617 103.3125 17.6875 C104.04210938 18.67234375 104.77171875 19.6571875 105.5234375 20.671875 C108.45343842 24.62531967 111.44557765 28.53082493 114.4375 32.4375 C114.99453613 33.16509521 115.55157227 33.89269043 116.12548828 34.64233398 C121.07402093 41.10231591 126.03494183 47.55271403 131 54 C133.08617229 56.71128275 135.17170585 59.42305677 137.25732422 62.13476562 C139.30233987 64.79352478 141.34794817 67.45182177 143.39453125 70.109375 C148.66896038 76.96016824 153.92625547 83.82383909 159.17626953 90.69335938 C164.10385237 97.13946892 169.0490214 103.57184418 174 110 C180.07399236 117.88623271 186.13188017 125.78441763 192.17626953 133.69335938 C197.10385391 140.13947094 202.04943004 146.57152742 207 153 C209.08617229 155.71128275 211.17170585 158.42305677 213.25732422 161.13476562 C215.30233987 163.79352478 217.34794817 166.45182177 219.39453125 169.109375 C224.66896038 175.96016824 229.92625547 182.82383909 235.17626953 189.69335938 C240.10385237 196.13946892 245.0490214 202.57184418 250 209 C256.07113005 216.88251639 262.12683656 224.77647027 268.16748047 232.68237305 C272.32577138 238.12312176 276.49959921 243.55165462 280.68359375 248.97265625 C282.51716695 251.36897873 284.33558808 253.77453564 286.14477539 256.18920898 C286.68074844 256.90439194 287.2167215 257.61957489 287.76893616 258.35643005 C288.17518723 258.89880814 288.58143829 259.44118622 289 260 C289.04703354 236.82281994 289.08214063 213.64564792 289.10362434 190.46842957 C289.11387138 179.70322052 289.12780345 168.93804139 289.15087891 158.17285156 C289.17101677 148.7735107 289.18376396 139.37419152 289.18817699 129.97482967 C289.19075044 125.01286566 289.19665589 120.05096362 289.21146011 115.08901978 C292.71960164 66.96182431 292.71960164 66.96182431 281 23 C277.47683281 20.65723557 274.20477491 20.69164682 270.046875 20.5859375 C269.38665344 20.56657135 268.72643188 20.5472052 268.04620361 20.5272522 C265.94759847 20.46770651 263.84893772 20.42117278 261.75 20.375 C260.3228934 20.33679706 258.89580928 20.29774398 257.46875 20.2578125 C253.97928695 20.16043214 250.49004915 20.08067024 247 20 C247 13.4 247 6.8 247 0 C278.35 0 309.7 0 342 0 C342 6.6 342 13.2 342 20 C340.14632812 20.06058594 338.29265625 20.12117188 336.3828125 20.18359375 C333.96353321 20.26798721 331.54426282 20.35263581 329.125 20.4375 C327.29001953 20.49647461 327.29001953 20.49647461 325.41796875 20.55664062 C324.25136719 20.59853516 323.08476562 20.64042969 321.8828125 20.68359375 C320.80402832 20.72025146 319.72524414 20.75690918 318.61376953 20.79467773 C316.01930464 20.83376643 316.01930464 20.83376643 314 22 C312.80940452 25.26744263 312.8720677 28.47335504 312.86692142 31.92144966 C312.86268038 33.14040212 312.85843933 34.35935457 312.85406977 35.61524498 C312.85437544 36.96982521 312.85476862 38.32440542 312.85523987 39.6789856 C312.852106 41.11644396 312.84853116 42.55390141 312.84455246 43.99135768 C312.8348505 47.94620815 312.83130336 51.90104418 312.82870948 55.85590482 C312.82481686 60.11904164 312.81517971 64.38216569 312.80615234 68.64529419 C312.79121057 76.0335171 312.77966766 83.421739 312.77020454 90.80997086 C312.75634074 101.4943468 312.73515512 112.17869904 312.71177601 122.86305796 C312.6738544 140.19987811 312.63888754 157.53670253 312.60717773 174.87353516 C312.60527724 175.91148247 312.60337675 176.94942978 312.60141867 178.01883005 C312.57456844 192.75924147 312.5506987 207.49965624 312.52803367 222.24007462 C312.52563771 223.79790516 312.52563771 223.79790516 312.52319336 225.38720703 C312.52159989 226.42449979 312.52000643 227.46179255 312.51836468 228.53051843 C312.49163072 245.80404184 312.45724761 263.07753986 312.41653961 280.35103595 C312.39172064 291.01362312 312.37341861 301.67618294 312.363384 312.33879445 C312.35601279 319.63859576 312.3415168 326.93836036 312.32131977 334.23813738 C312.30988951 338.45503196 312.30179672 342.67186722 312.30232811 346.88877869 C312.30275353 350.74382748 312.29412273 354.59874247 312.27807831 358.45375691 C312.27389864 359.85338843 312.27314663 361.25303492 312.27604241 362.65266968 C312.27947924 364.54519615 312.26959859 366.43773316 312.25891972 368.33023262 C312.25718347 369.38444629 312.25544722 370.43865996 312.25365835 371.52481949 C312 374 312 374 310 376 C306.97091163 376.74181756 305.87478064 376.94724573 303 376 C295.20584086 369.60938676 289.41704779 360.03115631 283.46240234 351.96777344 C281.29936883 349.05724754 279.09186198 346.18212906 276.875 343.3125 C276.46813965 342.78519287 276.0612793 342.25788574 275.64208984 341.71459961 C274.42858628 340.14265991 273.21429656 338.57132721 272 337 C270.39519034 334.91716193 268.79103438 332.83382004 267.1875 330.75 C266.78257324 330.2238208 266.37764648 329.6976416 265.96044922 329.15551758 C261.9038459 323.88099096 257.86421398 318.59351856 253.82373047 313.30664062 C248.89614763 306.86053108 243.9509786 300.42815582 239 294 C232.92600764 286.11376729 226.86811983 278.21558237 220.82373047 270.30664062 C215.89614763 263.86053108 210.9509786 257.42815582 206 251 C199.92377347 243.11086654 193.86346766 235.20991997 187.81713867 227.29785156 C184.55201597 223.02626667 181.28020867 218.76001126 178 214.5 C174.15615399 209.5079922 170.32556222 204.50603093 166.5 199.5 C161.01440603 192.32216937 155.51248756 185.15719696 150 178 C143.92600764 170.11376729 137.86811983 162.21558237 131.82373047 154.30664062 C126.89614763 147.86053108 121.9509786 141.42815582 117 135 C110.92377347 127.11086654 104.86346766 119.20991997 98.81713867 111.29785156 C95.55201597 107.02626667 92.28020867 102.76001126 89 98.5 C84.9946894 93.2957313 80.99425173 88.08776244 77 82.875 C76.43539062 82.13958984 75.87078125 81.40417969 75.2890625 80.64648438 C74.49628906 79.61104492 74.49628906 79.61104492 73.6875 78.5546875 C73.21699219 77.94093262 72.74648437 77.32717773 72.26171875 76.69482422 C71.12381958 75.16632267 70.05701052 73.58551578 69 72 C68.95303612 100.13176641 68.91789272 128.26352683 68.89637566 156.39532471 C68.88611418 169.46082885 68.87215342 182.52630848 68.84912109 195.59179688 C68.82902859 206.99517078 68.81624643 218.39852691 68.81182301 229.80191803 C68.80924214 235.82581284 68.8032865 241.84965683 68.78853989 247.87353516 C64.81229609 299.42078448 64.81229609 299.42078448 77 347 C80.52316719 349.34276443 83.79522509 349.30835318 87.953125 349.4140625 C88.61334656 349.43342865 89.27356812 349.4527948 89.95379639 349.4727478 C92.05240153 349.53229349 94.15106228 349.57882722 96.25 349.625 C97.6771066 349.66320294 99.10419072 349.70225602 100.53125 349.7421875 C104.02071305 349.83956786 107.50995085 349.91932976 111 350 C111 356.6 111 363.2 111 370 C79.65 370 48.3 370 16 370 C16 363.4 16 356.8 16 350 C17.85367188 349.93941406 19.70734375 349.87882812 21.6171875 349.81640625 C24.03646679 349.73201279 26.45573718 349.64736419 28.875 349.5625 C30.09832031 349.52318359 31.32164062 349.48386719 32.58203125 349.44335938 C33.74863281 349.40146484 34.91523438 349.35957031 36.1171875 349.31640625 C37.19597168 349.27974854 38.27475586 349.24309082 39.38623047 349.20532227 C41.98069536 349.16623357 41.98069536 349.16623357 44 348 C45.00113544 345.12006685 45.12596018 342.4268343 45.12863445 339.39663029 C45.13347112 338.00901008 45.13347112 338.00901008 45.1384055 336.59335715 C45.1368569 335.58044983 45.1353083 334.56754252 45.13371277 333.52394104 C45.1371111 331.90557709 45.1371111 331.90557709 45.14057809 330.25451893 C45.14692616 326.6261301 45.14608817 322.99777855 45.14526367 319.36938477 C45.14825491 316.77235872 45.15165736 314.17533312 45.15544128 311.57830811 C45.16375285 305.24445273 45.16649648 298.91060666 45.16705366 292.57674629 C45.16752921 287.41969758 45.16958596 282.26265192 45.17275429 277.10560417 C45.1815674 262.46049404 45.18617341 247.81539124 45.18542381 233.17027844 C45.18536388 231.98565492 45.18536388 231.98565492 45.18530273 230.77709961 C45.18524141 229.59101418 45.18524141 229.59101418 45.18517885 228.38096743 C45.18477368 215.60783979 45.19430896 202.83474182 45.2084411 190.06162275 C45.22286199 176.92273843 45.22970795 163.7838685 45.22884732 150.64497608 C45.228517 143.27843185 45.23119057 135.9119186 45.24202538 128.54538155 C45.2512065 122.26295462 45.25324458 115.98057266 45.24651595 109.69814188 C45.24328672 106.50163109 45.24418262 103.30522256 45.2518692 100.10871696 C46.32420116 61.6566056 46.32420116 61.6566056 30.94140625 27.62890625 C24.28080598 21.57267046 18.44969569 20.67331759 9.6875 20.375 C4.8921875 20.189375 4.8921875 20.189375 0 20 C0 13.4 0 6.8 0 0 Z " fill="#004B8D" transform="translate(2359,213)"/>
<path d="M0 0 C11.4313376 -0.2717268 22.86051199 -0.49159979 34.29435539 -0.62174606 C39.60436372 -0.68422907 44.91203815 -0.7688834 50.22070312 -0.90527344 C55.34970927 -1.0362144 60.47647979 -1.10752007 65.60702896 -1.13852692 C67.55846475 -1.16060432 69.50978567 -1.20372251 71.4602623 -1.26876068 C87.52056703 -1.78270943 87.52056703 -1.78270943 92.33624268 2.5513916 C94.97722503 5.44099407 96.98258375 8.64890048 99 12 C100.41955347 13.90930831 101.85471984 15.80721617 103.3125 17.6875 C104.04210938 18.67234375 104.77171875 19.6571875 105.5234375 20.671875 C108.45343842 24.62531967 111.44557765 28.53082493 114.4375 32.4375 C114.99453613 33.16509521 115.55157227 33.89269043 116.12548828 34.64233398 C121.07402093 41.10231591 126.03494183 47.55271403 131 54 C133.08617229 56.71128275 135.17170585 59.42305677 137.25732422 62.13476562 C139.30233987 64.79352478 141.34794817 67.45182177 143.39453125 70.109375 C148.66896038 76.96016824 153.92625547 83.82383909 159.17626953 90.69335938 C164.10385237 97.13946892 169.0490214 103.57184418 174 110 C180.07399236 117.88623271 186.13188017 125.78441763 192.17626953 133.69335938 C197.10385391 140.13947094 202.04943004 146.57152742 207 153 C209.08617229 155.71128275 211.17170585 158.42305677 213.25732422 161.13476562 C215.30233987 163.79352478 217.34794817 166.45182177 219.39453125 169.109375 C224.66896038 175.96016824 229.92625547 182.82383909 235.17626953 189.69335938 C240.10385237 196.13946892 245.0490214 202.57184418 250 209 C256.07113005 216.88251639 262.12683656 224.77647027 268.16748047 232.68237305 C272.32577138 238.12312176 276.49959921 243.55165462 280.68359375 248.97265625 C282.51716695 251.36897873 284.33558808 253.77453564 286.14477539 256.18920898 C286.68074844 256.90439194 287.2167215 257.61957489 287.76893616 258.35643005 C288.17518723 258.89880814 288.58143829 259.44118622 289 260 C289.04703354 236.82281994 289.08214063 213.64564792 289.10362434 190.46842957 C289.11387138 179.70322052 289.12780345 168.93804139 289.15087891 158.17285156 C289.17101677 148.7735107 289.18376396 139.37419152 289.18817699 129.97482967 C289.19075044 125.01286566 289.19665589 120.05096362 289.21146011 115.08901978 C292.71960164 66.96182431 292.71960164 66.96182431 281 23 C277.47683281 20.65723557 274.20477491 20.69164682 270.046875 20.5859375 C269.38665344 20.56657135 268.72643188 20.5472052 268.04620361 20.5272522 C265.94759847 20.46770651 263.84893772 20.42117278 261.75 20.375 C260.3228934 20.33679706 258.89580928 20.29774398 257.46875 20.2578125 C253.97928695 20.16043214 250.49004915 20.08067024 247 20 C247 13.4 247 6.8 247 0 C278.35 0 309.7 0 342 0 C342 6.6 342 13.2 342 20 C340.14632813 20.06058594 338.29265625 20.12117188 336.3828125 20.18359375 C333.96353321 20.26798721 331.54426282 20.35263581 329.125 20.4375 C327.29001953 20.49647461 327.29001953 20.49647461 325.41796875 20.55664062 C324.25136719 20.59853516 323.08476563 20.64042969 321.8828125 20.68359375 C320.80402832 20.72025146 319.72524414 20.75690918 318.61376953 20.79467773 C316.01930464 20.83376643 316.01930464 20.83376643 314 22 C312.80940452 25.26744263 312.8720677 28.47335504 312.86692142 31.92144966 C312.86268038 33.14040212 312.85843933 34.35935457 312.85406977 35.61524498 C312.85437544 36.96982521 312.85476862 38.32440542 312.85523987 39.6789856 C312.852106 41.11644396 312.84853116 42.55390141 312.84455246 43.99135768 C312.8348505 47.94620815 312.83130336 51.90104418 312.82870948 55.85590482 C312.82481686 60.11904164 312.81517971 64.38216569 312.80615234 68.64529419 C312.79121057 76.0335171 312.77966766 83.421739 312.77020454 90.80997086 C312.75634074 101.4943468 312.73515512 112.17869904 312.71177601 122.86305796 C312.6738544 140.19987811 312.63888754 157.53670253 312.60717773 174.87353516 C312.60527724 175.91148247 312.60337675 176.94942978 312.60141867 178.01883005 C312.57456844 192.75924147 312.5506987 207.49965624 312.52803367 222.24007462 C312.52563771 223.79790516 312.52563771 223.79790516 312.52319336 225.38720703 C312.52159989 226.42449979 312.52000643 227.46179255 312.51836468 228.53051843 C312.49163072 245.80404184 312.45724761 263.07753986 312.41653961 280.35103595 C312.39172064 291.01362312 312.37341861 301.67618294 312.363384 312.33879445 C312.35601279 319.63859576 312.3415168 326.93836036 312.32131977 334.23813738 C312.30988951 338.45503196 312.30179672 342.67186722 312.30232811 346.88877869 C312.30275353 350.74382748 312.29412273 354.59874247 312.27807831 358.45375691 C312.27389864 359.85338843 312.27314663 361.25303492 312.27604241 362.65266968 C312.27947924 364.54519615 312.26959859 366.43773316 312.25891972 368.33023262 C312.25718347 369.38444629 312.25544722 370.43865996 312.25365835 371.52481949 C312 374 312 374 310 376 C306.97091163 376.74181756 305.87478064 376.94724573 303 376 C295.20584086 369.60938676 289.41704779 360.03115631 283.46240234 351.96777344 C281.29936883 349.05724754 279.09186198 346.18212906 276.875 343.3125 C276.46813965 342.78519287 276.0612793 342.25788574 275.64208984 341.71459961 C274.42858628 340.14265991 273.21429656 338.57132721 272 337 C270.39519034 334.91716193 268.79103438 332.83382004 267.1875 330.75 C266.78257324 330.2238208 266.37764648 329.6976416 265.96044922 329.15551758 C261.9038459 323.88099096 257.86421398 318.59351856 253.82373047 313.30664062 C248.89614763 306.86053108 243.9509786 300.42815582 239 294 C232.92600764 286.11376729 226.86811983 278.21558237 220.82373047 270.30664062 C215.89614763 263.86053108 210.9509786 257.42815582 206 251 C199.92377347 243.11086654 193.86346766 235.20991997 187.81713867 227.29785156 C184.55201597 223.02626667 181.28020867 218.76001126 178 214.5 C174.15615399 209.5079922 170.32556222 204.50603093 166.5 199.5 C161.01440603 192.32216937 155.51248756 185.15719696 150 178 C143.92600764 170.11376729 137.86811983 162.21558237 131.82373047 154.30664062 C126.89614763 147.86053108 121.9509786 141.42815582 117 135 C110.92377347 127.11086654 104.86346766 119.20991997 98.81713867 111.29785156 C95.55201597 107.02626667 92.28020867 102.76001126 89 98.5 C84.9946894 93.2957313 80.99425173 88.08776244 77 82.875 C76.43539063 82.13958984 75.87078125 81.40417969 75.2890625 80.64648438 C74.49628906 79.61104492 74.49628906 79.61104492 73.6875 78.5546875 C73.21699219 77.94093262 72.74648437 77.32717773 72.26171875 76.69482422 C71.12381958 75.16632267 70.05701052 73.58551578 69 72 C68.95303612 100.13176641 68.91789272 128.26352683 68.89637566 156.39532471 C68.88611418 169.46082885 68.87215342 182.52630848 68.84912109 195.59179688 C68.82902859 206.99517078 68.81624643 218.39852691 68.81182301 229.80191803 C68.80924214 235.82581284 68.8032865 241.84965683 68.78853989 247.87353516 C64.81229609 299.42078448 64.81229609 299.42078448 77 347 C80.52316719 349.34276443 83.79522509 349.30835318 87.953125 349.4140625 C88.61334656 349.43342865 89.27356812 349.4527948 89.95379639 349.4727478 C92.05240153 349.53229349 94.15106228 349.57882722 96.25 349.625 C97.6771066 349.66320294 99.10419072 349.70225602 100.53125 349.7421875 C104.02071305 349.83956786 107.50995085 349.91932976 111 350 C111 356.6 111 363.2 111 370 C79.65 370 48.3 370 16 370 C16 363.4 16 356.8 16 350 C17.85367187 349.93941406 19.70734375 349.87882812 21.6171875 349.81640625 C24.03646679 349.73201279 26.45573718 349.64736419 28.875 349.5625 C30.09832031 349.52318359 31.32164063 349.48386719 32.58203125 349.44335938 C33.74863281 349.40146484 34.91523437 349.35957031 36.1171875 349.31640625 C37.19597168 349.27974854 38.27475586 349.24309082 39.38623047 349.20532227 C41.98069536 349.16623357 41.98069536 349.16623357 44 348 C45.00113544 345.12006685 45.12596018 342.4268343 45.12863445 339.39663029 C45.13347112 338.00901008 45.13347112 338.00901008 45.1384055 336.59335715 C45.1368569 335.58044983 45.1353083 334.56754252 45.13371277 333.52394104 C45.1371111 331.90557709 45.1371111 331.90557709 45.14057809 330.25451893 C45.14692616 326.6261301 45.14608817 322.99777855 45.14526367 319.36938477 C45.14825491 316.77235872 45.15165736 314.17533312 45.15544128 311.57830811 C45.16375285 305.24445273 45.16649648 298.91060666 45.16705366 292.57674629 C45.16752921 287.41969758 45.16958596 282.26265192 45.17275429 277.10560417 C45.1815674 262.46049404 45.18617341 247.81539124 45.18542381 233.17027844 C45.18536388 231.98565492 45.18536388 231.98565492 45.18530273 230.77709961 C45.18524141 229.59101418 45.18524141 229.59101418 45.18517885 228.38096743 C45.18477368 215.60783979 45.19430896 202.83474182 45.2084411 190.06162275 C45.22286199 176.92273843 45.22970795 163.7838685 45.22884732 150.64497608 C45.228517 143.27843185 45.23119057 135.9119186 45.24202538 128.54538155 C45.2512065 122.26295462 45.25324458 115.98057266 45.24651595 109.69814188 C45.24328672 106.50163109 45.24418262 103.30522256 45.2518692 100.10871696 C46.32420116 61.6566056 46.32420116 61.6566056 30.94140625 27.62890625 C24.28080598 21.57267046 18.44969569 20.67331759 9.6875 20.375 C4.8921875 20.189375 4.8921875 20.189375 0 20 C0 13.4 0 6.8 0 0 Z " fill="#004B8D" transform="translate(1288,213)"/>
<path d="M0 0 C2.0502923 3.07543845 2.64484466 5.01461691 2.59765625 8.6953125 C1.56033493 12.69544046 -1.32530864 15.3080334 -4.15234375 18.21484375 C-7.60931494 23.42588066 -7.36798783 28.8712408 -6.27734375 34.87890625 C-5.85098069 36.7780976 -5.40239738 38.67237205 -4.9375 40.5625 C-4.53930054 42.22067749 -4.53930054 42.22067749 -4.13305664 43.91235352 C10.78488189 104.10593673 31.38261244 163.15019342 50.48243713 222.12358093 C54.15621491 233.47137616 57.80345849 244.82756965 61.43780518 256.18804932 C62.42432081 259.27130969 63.41207494 262.35417141 64.39990234 265.43701172 C67.48719921 275.08066642 70.54912863 284.73141315 73.5625 294.3984375 C80.28253775 316.10820416 80.28253775 316.10820416 87.9375 337.5 C88.2667749 338.36520264 88.5960498 339.23040527 88.93530273 340.12182617 C91.73103211 347.08750484 94.9524161 354.68904004 101.75 358.515625 C106.39516305 360.46659348 111.01791554 360.66440318 116 360.75 C118.97 360.8325 121.94 360.915 125 361 C125 367.6 125 374.2 125 381 C82.76 381 40.52 381 -3 381 C-3 374.4 -3 367.8 -3 361 C7.23 360.67 17.46 360.34 28 360 C28.10930925 354.08630617 28.10930925 354.08630617 26.98461914 348.77954102 C26.75858505 348.01781082 26.53255096 347.25608063 26.29966736 346.4712677 C26.04737869 345.65703842 25.79509003 344.84280914 25.53515625 344.00390625 C25.27025894 343.12171921 25.00536163 342.23953217 24.73243713 341.33061218 C23.85148762 338.40509488 22.95694512 335.48391656 22.0625 332.5625 C21.44166537 330.50840385 20.82172918 328.45403596 20.20263672 326.39941406 C18.14872387 319.59543816 16.07528162 312.79748345 14 306 C13.22275155 303.45233175 12.44556718 300.90464403 11.66845703 298.35693359 C11.4723178 297.71400958 11.27617857 297.07108557 11.07409573 296.40867901 C10.08395137 293.1628791 9.09430811 289.91692772 8.10566711 286.67066956 C7.9121337 286.03522563 7.71860029 285.3997817 7.51920223 284.7450819 C7.3265154 284.11240556 7.13382856 283.47972921 6.93530273 282.82788086 C5.40852148 277.81503551 3.87466385 272.80443157 2.33618164 267.79516602 C1.63284249 265.49369291 0.92962971 263.19218119 0.2265625 260.890625 C-0.10089462 259.83026535 -0.42835175 258.7699057 -0.76573181 257.67741394 C-1.06137527 256.70653336 -1.35701874 255.73565277 -1.66162109 254.73535156 C-1.9213974 253.88894104 -2.18117371 253.04253052 -2.44882202 252.17047119 C-3 250 -3 250 -3 247 C-38.31 247.33 -73.62 247.66 -110 248 C-131.92863566 300.22540465 -131.92863566 300.22540465 -137 355.9375 C-136.505 357.4534375 -136.505 357.4534375 -136 359 C-131.92215064 360.12550137 -127.9413442 360.22471618 -123.734375 360.31640625 C-122.54427826 360.3475779 -122.54427826 360.3475779 -121.33013916 360.37937927 C-118.80351156 360.44459973 -116.27678279 360.50363144 -113.75 360.5625 C-112.03384384 360.6057114 -110.31769778 360.64932653 -108.6015625 360.69335938 C-104.40114373 360.80101034 -100.20064473 360.90028773 -96 361 C-96 367.6 -96 374.2 -96 381 C-129.99 381 -163.98 381 -199 381 C-199 374.4 -199 367.8 -199 361 C-197.53046875 360.95101563 -196.0609375 360.90203125 -194.546875 360.8515625 C-192.61456465 360.77652132 -190.6822739 360.70097407 -188.75 360.625 C-187.29787109 360.57859375 -187.29787109 360.57859375 -185.81640625 360.53125 C-184.88183594 360.49257813 -183.94726562 360.45390625 -182.984375 360.4140625 C-181.69611816 360.36693115 -181.69611816 360.36693115 -180.38183594 360.31884766 C-177.73412218 359.96440791 -176.18680764 359.54344123 -174 358 C-172.59718916 355.66044523 -172.59718916 355.66044523 -171.56640625 352.80078125 C-170.93049561 351.17003662 -170.93049561 351.17003662 -170.28173828 349.50634766 C-168.31606274 344.1290082 -166.45384061 338.7210425 -164.64144897 333.2906189 C-144.4467861 272.95701714 -121.35151189 213.52935386 -98.9866333 153.97039795 C-92.08247755 135.58374187 -85.19082611 117.19260129 -78.36053467 98.77835083 C-77.7950558 97.2539222 -77.22956512 95.72949794 -76.6640625 94.20507812 C-76.38595356 93.45531141 -76.10784462 92.7055447 -75.82130814 91.93305779 C-74.16584724 87.47390954 -72.50028761 83.01870046 -70.82559586 78.56674004 C-69.48703239 75.00803017 -68.15250278 71.44781893 -66.8203125 67.88671875 C-66.56377144 67.20117794 -66.30723038 66.51563713 -66.04291534 65.80932236 C-62.64228419 56.69800621 -59.50072131 47.53994749 -56.5546875 38.26953125 C-55.56735221 35.26803608 -54.57353822 32.26878442 -53.57675171 29.27041626 C-52.7233784 26.61177725 -51.96586563 23.9384168 -51.21020508 21.25073242 C-47.86510392 10.60713149 -47.86510392 10.60713149 -42.72619629 7.72454834 C-37.4374096 5.59845167 -32.02499714 4.39828957 -26.42112732 3.43267822 C-23.1761125 2.85276356 -20.05214804 1.9994674 -16.875 1.125 C-11.39515366 -0.07527925 -5.57469334 -1.03573537 0 0 Z M-53 88 C-68.58945082 124.7177892 -81.35205556 162.56665034 -94.32086182 200.2673645 C-96.54282246 206.71501426 -98.83058292 213.13566763 -101.1809082 219.53759766 C-102.10521167 221.88378355 -102.10521167 221.88378355 -102 224 C-72.3 224 -42.6 224 -12 224 C-13.31327239 217.43363807 -14.69498651 211.21167723 -16.63867188 204.85131836 C-16.89600098 203.99578369 -17.15333008 203.14024902 -17.41845703 202.25878906 C-18.26414854 199.4511228 -19.11639849 196.64549461 -19.96875 193.83984375 C-20.57010339 191.84823004 -21.17104736 189.85649266 -21.77160645 187.86463928 C-23.35501087 182.61704392 -24.94400156 177.37115641 -26.53417969 172.12561035 C-28.11472464 166.90833373 -29.68994219 161.68944979 -31.265625 156.47070312 C-34.56091444 145.5601155 -37.86332615 134.6516939 -41.16851807 123.74410248 C-41.98211136 121.05903707 -42.79553263 118.37391961 -43.60888672 115.68878174 C-46.404748 106.458831 -49.20156936 97.22917211 -52 88 C-52.33 88 -52.66 88 -53 88 Z " fill="#004B8D" transform="translate(1144,202)"/>
<path d="M0 0 C1.00740234 0.38889404 2.01480469 0.77778809 3.05273438 1.1784668 C3.97892578 1.5475415 4.90511719 1.91661621 5.859375 2.296875 C6.68405273 2.62526367 7.50873047 2.95365234 8.35839844 3.29199219 C10.25 4.25 10.25 4.25 11.25 6.25 C11.14997292 8.90118686 10.98460491 11.51088783 10.76171875 14.15234375 C10.69845901 14.94467911 10.63519928 15.73701447 10.57002258 16.55335999 C10.43403516 18.23738318 10.29513064 19.92117293 10.15356445 21.60473633 C9.94102217 24.14539709 9.74030393 26.68678515 9.54101562 29.22851562 C7.59344058 53.40696179 7.59344058 53.40696179 3.25 58.25 C0.48857697 58.77799676 -1.91365545 58.43598981 -4.75 58.25 C-6.81374662 53.81294477 -8.26069236 49.472457 -9.5625 44.75 C-13.1610591 33.1177573 -21.39848857 27.85338944 -31.75 22.25 C-57.40568835 9.28850007 -86.59788642 7.04572126 -114.125 15.0546875 C-142.52125683 24.4181084 -166.4891007 41.90612976 -182.75 67.25 C-183.11706055 67.81477051 -183.48412109 68.37954102 -183.86230469 68.96142578 C-214.26276298 116.25517724 -221.19774025 178.69696083 -209.9453125 233.0390625 C-207.97397307 241.90175091 -205.52039983 250.60606784 -202.75 259.25 C-202.52618652 259.95286133 -202.30237305 260.65572266 -202.07177734 261.37988281 C-191.18695604 294.72531747 -169.43059886 324.79205388 -138.04296875 341.234375 C-110.67488591 354.95433254 -80.80786335 354.57544968 -52.18237305 345.23193359 C-31.50790756 338.09361187 -11.15882123 327.33552354 -0.75 307.25 C1.85423871 301.68194151 3.05510788 295.90473831 4.2109375 289.88671875 C5.54798622 286.49383196 6.96082255 285.70139909 10.25 284.25 C13.375 284.25 13.375 284.25 16.25 285.25 C19.18155515 289.05010113 19.56481025 291.59784932 19.17578125 296.31640625 C19.08731934 297.51120605 18.99885742 298.70600586 18.90771484 299.93701172 C18.79379395 301.21592285 18.67987305 302.49483398 18.5625 303.8125 C18.32778076 306.51397153 18.09831443 309.21585693 17.87109375 311.91796875 C17.81141418 312.60618713 17.75173462 313.29440552 17.69024658 314.003479 C17.30213203 318.74539475 17.19946928 323.41769615 17.22265625 328.17578125 C17.13823595 345.63052187 17.13823595 345.63052187 13.91601562 350.10058594 C10.30010152 353.14950759 6.13685895 354.37879129 1.62548828 355.56787109 C-0.82178895 356.27061442 -3.05249033 357.17529933 -5.37890625 358.20703125 C-24.86698277 366.82833676 -45.76423187 371.88196861 -66.75 375.25 C-67.42724121 375.36182617 -68.10448242 375.47365234 -68.80224609 375.58886719 C-115.91353473 383.15244202 -171.53065934 377.43502517 -211.1484375 348.83984375 C-249.63304836 320.22708153 -269.26436698 279.59723091 -276.171875 232.77734375 C-276.37113544 231.26908031 -276.5637173 229.75992122 -276.75 228.25 C-276.89356934 227.11570557 -276.89356934 227.11570557 -277.04003906 225.95849609 C-279.63541339 202.13035513 -279.5563211 175.73329079 -274.75 152.25 C-274.54600586 151.24807617 -274.34201172 150.24615234 -274.13183594 149.21386719 C-266.04553372 110.75979246 -249.9986338 75.86307202 -222.75 47.25 C-222.19070801 46.65815918 -221.63141602 46.06631836 -221.05517578 45.45654297 C-184.12732319 6.61312454 -133.74145356 -13.98024019 -80.37939453 -15.69775391 C-52.52135758 -16.25129336 -25.86010812 -9.99049335 0 0 Z " fill="#004B8D" transform="translate(885.75,216.75)"/>
<path d="M0 0 C86.79 0 173.58 0 263 0 C265.31 7.92 267.62 15.84 270 24 C270.886875 27.01382813 271.77375 30.02765625 272.6875 33.1328125 C273.86328125 37.19140625 273.86328125 37.19140625 274.42822266 39.15283203 C274.81913917 40.50117685 275.21487433 41.84813148 275.61474609 43.19384766 C276.21338118 45.21192677 276.79575655 47.23409493 277.375 49.2578125 C277.71273438 50.4142627 278.05046875 51.57071289 278.3984375 52.76220703 C279.04414642 56.23760953 278.92947118 58.60115997 278 62 C275.27564019 64.4130044 273.6240421 64.96099737 270 65.1875 C264.8431035 63.14622847 263.26403384 58.45667707 260.82421875 53.71484375 C254.41519887 41.54396886 244.44954473 35.58667108 231.64990234 31.19335938 C214.59050016 25.90567716 197.29556672 24.67754943 179.5625 23.875 C177.75192521 23.78834167 175.94137798 23.70110552 174.13085938 23.61328125 C169.75419436 23.40221283 165.37723453 23.19889253 161 23 C161.10538577 55.04240679 161.21524913 87.08479447 161.33111694 119.12716496 C161.3448818 122.9347928 161.3586096 126.74242077 161.37231445 130.55004883 C161.37504276 131.3078821 161.37777106 132.06571537 161.38058204 132.84651328 C161.42431298 145.01790984 161.4650621 157.18931456 161.50465261 169.36072522 C161.54553248 181.90746311 161.58974784 194.45418626 161.63687855 207.00090224 C161.66316873 214.02383458 161.68803665 221.04676529 161.70907402 228.0697155 C161.80258377 264.37017196 161.80258377 264.37017196 162.3394624 300.66610444 C162.37536289 302.35219516 162.4089282 304.03833783 162.43974388 305.72452915 C161.85138859 327.49351333 161.85138859 327.49351333 169.47265625 346.63671875 C172.01102388 348.90242285 173.77360534 349.13597376 177.08251953 349.20532227 C177.92324005 349.22526749 178.76396057 349.24521271 179.63015747 349.26576233 C180.53853363 349.28247482 181.44690979 349.29918732 182.3828125 349.31640625 C183.77691849 349.3475779 183.77691849 349.3475779 185.19918823 349.37937927 C188.1743821 349.44487646 191.14966577 349.50376052 194.125 349.5625 C196.13933228 349.60568506 198.15365541 349.64929934 200.16796875 349.69335938 C205.11188838 349.80136751 210.05587407 349.90043962 215 350 C215 356.6 215 363.2 215 370 C162.53 370 110.06 370 56 370 C56 363.4 56 356.8 56 350 C59.00867187 349.93941406 62.01734375 349.87882812 65.1171875 349.81640625 C68.02297547 349.75464284 70.92872347 349.69124438 73.83447266 349.62768555 C75.85787416 349.58430605 77.88131299 349.54263322 79.90478516 349.50268555 C82.80903384 349.44505592 85.71309411 349.3813406 88.6171875 349.31640625 C89.97975174 349.29133751 89.97975174 349.29133751 91.36984253 349.26576233 C92.21056305 349.24581711 93.05128357 349.22587189 93.91748047 349.20532227 C94.65916473 349.18977798 95.400849 349.1742337 96.16500854 349.15821838 C98.09674104 349.10526504 98.09674104 349.10526504 100 348 C101.02513114 344.92460657 101.12989974 342.82399523 101.1386652 339.60206318 C101.14413964 338.47443666 101.14961409 337.34681014 101.15525442 336.18501312 C101.15623253 334.94086629 101.15721064 333.69671946 101.15821838 332.41487122 C101.16315636 331.09740408 101.16809434 329.77993695 101.17318195 328.42254657 C101.1867835 324.75802098 101.19418724 321.09350469 101.20060861 317.42896044 C101.2086037 313.48008992 101.22230454 309.53123879 101.23532104 305.5823822 C101.25709645 298.73816853 101.27523705 291.8939529 101.29092598 285.04972267 C101.31361492 275.15405051 101.3417591 265.25839981 101.37124526 255.36274584 C101.41893314 239.30865318 101.46219408 223.25455176 101.50268555 207.20043945 C101.54203439 191.60310178 101.58345914 176.0057719 101.62768555 160.40844727 C101.63040982 159.44742286 101.63313409 158.48639845 101.63594092 157.4962521 C101.64962029 152.67519296 101.66334059 147.85413394 101.67708123 143.03307498 C101.7910648 103.0220662 101.89787 63.01104069 102 23 C96.6549826 23.25598508 91.310241 23.51699054 85.96568298 23.78239441 C84.15233288 23.87176486 82.33891783 23.9598286 80.5254364 24.04649353 C55.99013497 25.22124246 27.14283538 26.7075772 8.09375 44.4453125 C5.00444058 48.21473108 2.86953079 52.39640596 0.82519531 56.80834961 C-1.13857111 60.93597432 -2.74223469 63.19837823 -7 65 C-10.1875 64.875 -10.1875 64.875 -13 64 C-15 61 -15 61 -15 53 C-10.05 35.51 -5.1 18.02 0 0 Z " fill="#004B8D" transform="translate(1680,213)"/>
<path d="M0 0 C9.57 0 19.14 0 29 0 C29 1.32 29 2.64 29 4 C26.69 4.33 24.38 4.66 22 5 C27.05670699 18.00526878 32.44827881 30.86022636 37.9375 43.6875 C38.44798386 44.88362411 38.44798386 44.88362411 38.96878052 46.10391235 C39.94384497 48.38688917 40.92243439 50.66831794 41.90234375 52.94921875 C42.19994598 53.64626923 42.49754822 54.3433197 42.8041687 55.06149292 C44.0324782 58.26219959 44.0324782 58.26219959 46 61 C48.17289894 55.42016311 50.326817 49.83350444 52.46362305 44.23974609 C53.19284797 42.33867404 53.92718081 40.43955301 54.66674805 38.54248047 C55.73020421 35.81196557 56.77496692 33.07491305 57.81640625 30.3359375 C58.14967422 29.49195404 58.4829422 28.64797058 58.8263092 27.77841187 C60.9379879 22.15187045 61.33219641 18.48051313 59.1328125 12.734375 C58.80023437 12.07953125 58.46765625 11.4246875 58.125 10.75 C57.79757813 10.08484375 57.47015625 9.4196875 57.1328125 8.734375 C55.35736211 6.01609923 53.41299651 5.0960457 50.3125 4.375 C49.549375 4.25125 48.78625 4.1275 48 4 C48 2.68 48 1.36 48 0 C57.57 0 67.14 0 77 0 C77 1.32 77 2.64 77 4 C74.69 4.33 72.38 4.66 70 5 C70.24008789 5.59498291 70.48017578 6.18996582 70.72753906 6.80297852 C74.97964738 17.3542473 79.20929228 27.91267985 83.30078125 38.52734375 C83.70957016 39.5875045 83.70957016 39.5875045 84.12661743 40.66908264 C85.4725448 44.16258573 86.81421129 47.65767165 88.15136719 51.15454102 C88.64383272 52.43637892 89.13634348 53.71819946 89.62890625 55 C90.2796814 56.7015625 90.2796814 56.7015625 90.94360352 58.4375 C91.7631852 60.89126206 91.7631852 60.89126206 93 62 C95.05286727 56.61774122 97.09707935 51.23229565 99.1340332 45.84399414 C99.82514059 44.0192464 100.51842686 42.19532209 101.21411133 40.37231445 C105.66434737 28.70530574 109.68804177 17.0424973 113 5 C108.05 4.505 108.05 4.505 103 4 C103 2.68 103 1.36 103 0 C111.25 0 119.5 0 128 0 C128 1.32 128 2.64 128 4 C127.07960938 4.00580078 126.15921875 4.01160156 125.2109375 4.01757812 C121.67442403 4.69493761 121.67442403 4.69493761 120.1640625 8.27929688 C119.62615865 9.75025244 119.11500787 11.23115358 118.625 12.71875 C118.19465454 13.92041809 118.19465454 13.92041809 117.75561523 15.1463623 C117.13899946 16.86945439 116.53214475 18.59606446 115.93408203 20.32568359 C114.69990878 23.85917387 113.38335888 27.35927768 112.06567383 30.86230469 C110.35947476 35.40164958 108.68216813 39.95170714 107 44.5 C104.66961546 50.80095839 102.3289663 57.09778756 99.97021484 63.38818359 C98.99068143 66.02508558 98.03528072 68.66990399 97.08203125 71.31640625 C96.47189257 72.97155274 95.86123959 74.62650976 95.25 76.28125 C94.98050537 77.04852417 94.71101074 77.81579834 94.43334961 78.60632324 C93.640625 80.72070312 93.640625 80.72070312 92 84 C89.89746094 84.70495605 89.89746094 84.70495605 88 85 C84.67527326 77.86898931 81.62226059 70.69005314 78.828125 63.3359375 C78.46023865 62.37724762 78.09235229 61.41855774 77.71331787 60.43081665 C76.55567194 57.41342741 75.40238778 54.39440094 74.25 51.375 C73.08305691 48.32000161 71.91510627 45.2654086 70.74383545 42.21206665 C70.01895029 40.32225193 69.29658189 38.43146955 68.57696533 36.53964233 C68.25282654 35.69430939 67.92868774 34.84897644 67.59472656 33.97802734 C67.16767426 32.85864273 67.16767426 32.85864273 66.73199463 31.71664429 C66.12748155 30.00311933 66.12748155 30.00311933 65 29 C64.79590515 29.56883408 64.5918103 30.13766815 64.38153076 30.72373962 C62.24393212 36.67935375 60.10158044 42.63324283 57.95654297 48.58618164 C57.15813807 50.80384737 56.3609192 53.02194048 55.56494141 55.24047852 C54.4162551 58.44141726 53.26321888 61.64076109 52.109375 64.83984375 C51.75816589 65.82145981 51.40695679 66.80307587 51.04510498 67.81443787 C48.930743 73.66099376 46.61424962 79.35874463 44 85 C42.68 85 41.36 85 40 85 C29.33333333 58.33333333 18.66666667 31.66666667 8 5 C5.36 4.67 2.72 4.34 0 4 C0 2.68 0 1.36 0 0 Z " fill="#004B8D" transform="translate(2185,654)"/>
<path d="M0 0 C6.36778167 -0.127601 12.7352293 -0.21468406 19.10400391 -0.2746582 C21.26688965 -0.29968039 23.42969189 -0.33370909 25.59228516 -0.37719727 C28.71537981 -0.43839207 31.83734913 -0.46633343 34.9609375 -0.48828125 C35.91551849 -0.51408768 36.87009949 -0.5398941 37.85360718 -0.56648254 C45.58944552 -0.56965738 52.10074285 1.5101566 57.94662476 6.74223328 C62.35821609 11.3792967 63.73606153 16.09667678 64.3125 22.4375 C63.63987587 30.10541513 61.22354623 34.40349283 55.42578125 39.45703125 C52.10790883 41.56743319 48.71213686 42.70561092 45 44 C50.29030308 51.83487851 55.6022131 59.65040992 61.3125 67.1875 C62.07175781 68.19167969 62.83101562 69.19585938 63.61328125 70.23046875 C66.95990929 74.11387183 70.63931056 78.38145891 76 79 C76 80.32 76 81.64 76 83 C59.51396598 84.81128349 59.51396598 84.81128349 54.12109375 80.92578125 C52.21602721 78.35411684 50.58076415 75.77151334 49.07617188 72.94775391 C47.45403978 70.01187145 45.57481746 67.25828577 43.71875 64.46655273 C42.31647309 62.35031735 40.94093864 60.21994279 39.578125 58.078125 C39.14435547 57.41103516 38.71058594 56.74394531 38.26367188 56.05664062 C37 54 37 54 35.87695312 51.74023438 C34.64119146 49.21133118 34.64119146 49.21133118 32 46 C29.03 45.67 26.06 45.34 23 45 C23.66 55.89 24.32 66.78 25 78 C27.97 78.33 30.94 78.66 34 79 C34 80.32 34 81.64 34 83 C23.77 83 13.54 83 3 83 C3 81.68 3 80.36 3 79 C6.465 78.505 6.465 78.505 10 78 C10 53.91 10 29.82 10 5 C6.7 4.67 3.4 4.34 0 4 C0 2.68 0 1.36 0 0 Z M23 7 C22.82497005 9.58103306 22.76837721 12.05308163 22.8046875 14.6328125 C22.8075174 15.38464813 22.81034729 16.13648376 22.81326294 16.91110229 C22.82447126 19.31589578 22.84957648 21.72031881 22.875 24.125 C22.88502898 25.75390088 22.89415497 27.38280758 22.90234375 29.01171875 C22.92441265 33.00795556 22.95894649 37.00391494 23 41 C24.26384521 41.00612305 25.52769043 41.01224609 26.82983398 41.01855469 C27.89620338 41.02372101 27.89620338 41.02372101 28.9841156 41.0289917 C36.04266127 40.92747832 42.27469496 39.0895036 48 35 C50.74987784 31.5168214 51.7401603 28.41727497 52 24 C51.064763 18.10800688 49.47320196 13.13797371 45 9 C39.22720049 5.52401593 28.45778322 1.54221678 23 7 Z " fill="#004B8D" transform="translate(2524,654)"/>
<path d="M0 0 C6.36778167 -0.127601 12.7352293 -0.21468406 19.10400391 -0.2746582 C21.26688965 -0.29968039 23.42969189 -0.33370909 25.59228516 -0.37719727 C28.71537981 -0.43839207 31.83734913 -0.46633343 34.9609375 -0.48828125 C35.91551849 -0.51408768 36.87009949 -0.5398941 37.85360718 -0.56648254 C45.58944552 -0.56965738 52.10074285 1.5101566 57.94662476 6.74223328 C62.35821609 11.3792967 63.73606153 16.09667678 64.3125 22.4375 C63.63987587 30.10541513 61.22354623 34.40349283 55.42578125 39.45703125 C52.10790883 41.56743319 48.71213686 42.70561092 45 44 C50.29030308 51.83487851 55.6022131 59.65040992 61.3125 67.1875 C62.07175781 68.19167969 62.83101562 69.19585938 63.61328125 70.23046875 C66.95990929 74.11387183 70.63931056 78.38145891 76 79 C76 80.32 76 81.64 76 83 C59.51396598 84.81128349 59.51396598 84.81128349 54.12109375 80.92578125 C52.21602721 78.35411684 50.58076415 75.77151334 49.07617188 72.94775391 C47.45403978 70.01187145 45.57481746 67.25828577 43.71875 64.46655273 C42.31647309 62.35031735 40.94093864 60.21994279 39.578125 58.078125 C39.14435547 57.41103516 38.71058594 56.74394531 38.26367188 56.05664062 C37 54 37 54 35.87695312 51.74023438 C34.64119146 49.21133118 34.64119146 49.21133118 32 46 C29.03 45.67 26.06 45.34 23 45 C23.66 55.89 24.32 66.78 25 78 C27.97 78.33 30.94 78.66 34 79 C34 80.32 34 81.64 34 83 C23.77 83 13.54 83 3 83 C3 81.68 3 80.36 3 79 C6.465 78.505 6.465 78.505 10 78 C10 53.91 10 29.82 10 5 C6.7 4.67 3.4 4.34 0 4 C0 2.68 0 1.36 0 0 Z M23 7 C22.82497005 9.58103306 22.76837721 12.05308163 22.8046875 14.6328125 C22.8075174 15.38464813 22.81034729 16.13648376 22.81326294 16.91110229 C22.82447126 19.31589578 22.84957648 21.72031881 22.875 24.125 C22.88502898 25.75390088 22.89415497 27.38280758 22.90234375 29.01171875 C22.92441265 33.00795556 22.95894649 37.00391494 23 41 C24.26384521 41.00612305 25.52769043 41.01224609 26.82983398 41.01855469 C27.89620338 41.02372101 27.89620338 41.02372101 28.9841156 41.0289917 C36.04266127 40.92747832 42.27469496 39.0895036 48 35 C50.74987784 31.5168214 51.7401603 28.41727497 52 24 C51.064763 18.10800688 49.47320196 13.13797371 45 9 C39.22720049 5.52401593 28.45778322 1.54221678 23 7 Z " fill="#004B8D" transform="translate(1432,654)"/>
<path d="M0 0 C10.23 0 20.46 0 31 0 C31 1.32 31 2.64 31 4 C28.69 4.66 26.38 5.32 24 6 C24 18.21 24 30.42 24 43 C32.16612749 35.41200543 40.29297912 27.80819736 48.1875 19.9375 C48.79795166 19.33156006 49.40840332 18.72562012 50.03735352 18.10131836 C56.65845476 11.80463759 56.65845476 11.80463759 61 4 C57.37 4 53.74 4 50 4 C50 2.68 50 1.36 50 0 C59.57 0 69.14 0 79 0 C79 1.32 79 2.64 79 4 C77.17082031 4.35771484 77.17082031 4.35771484 75.3046875 4.72265625 C67.69649437 7.26319078 62.53860202 13.79806894 57.125 19.4375 C55.98833075 20.59572901 54.85031934 21.75264246 53.7109375 22.90820312 C47.29048656 29.01829022 47.29048656 29.01829022 42 36 C42.35875329 40.44917202 45.51816937 43.19706302 48.375 46.375 C52.65768773 51.24350282 56.78289835 56.18355916 60.75 61.3125 C62.08763066 63.02157621 63.42802508 64.72843082 64.77001953 66.43408203 C65.91251562 67.88862151 67.04833667 69.34839726 68.18359375 70.80859375 C72.45141249 76.00817798 75.25539222 78.15692403 82 79 C82 80.32 82 81.64 82 83 C64.92746587 85.33919629 64.92746587 85.33919629 59.06933594 81.85009766 C55.52043361 78.56946391 53.05051754 74.50450135 50.53662109 70.41064453 C47.60519183 65.81183097 44.22796282 61.53238696 40.9375 57.1875 C40.29312988 56.3099707 39.64875977 55.43244141 38.98486328 54.52832031 C38.38013184 53.7081543 37.77540039 52.88798828 37.15234375 52.04296875 C36.61601318 51.31102295 36.07968262 50.57907715 35.52709961 49.82495117 C33.94434856 47.75913451 33.94434856 47.75913451 31 46 C28.03897939 47.58626104 25.94310288 49.24079391 24 52 C23.23761568 56.717253 23.599578 61.25499926 24 66 C24.0825 67.18078125 24.165 68.3615625 24.25 69.578125 C24.46326862 72.39060494 24.71223756 75.1943162 25 78 C28.3 78.33 31.6 78.66 35 79 C35 80.32 35 81.64 35 83 C24.44 83 13.88 83 3 83 C3 81.68 3 80.36 3 79 C6.465 78.505 6.465 78.505 10 78 C10 53.91 10 29.82 10 5 C6.7 4.67 3.4 4.34 0 4 C0 2.68 0 1.36 0 0 Z " fill="#004B8D" transform="translate(2604,654)"/>
<path d="M0 0 C1.38481567 0.01135986 1.38481567 0.01135986 2.79760742 0.02294922 C14.49388968 0.30553288 22.90995473 3.956157 31.30859375 12.0625 C39.64979785 21.04853534 42.11608268 32.97723395 41.8125 44.96875 C40.80221978 58.27077285 35.45376943 69.24055603 25.90234375 78.54296875 C14.61887315 87.92973245 0.61651319 88.58411038 -13.375 87.4375 C-24.2839283 85.40578425 -32.37922904 79.89359199 -38.83203125 70.9453125 C-43.78204626 62.89997165 -44.72856741 55.08582833 -44.8125 45.8125 C-44.82273193 44.94206055 -44.83296387 44.07162109 -44.84350586 43.17480469 C-44.68046353 31.08458888 -40.32742791 20.48438908 -32.0625 11.625 C-23.11462378 3.26709364 -12.03356055 -0.13840517 0 0 Z M-24.91015625 14.51953125 C-33.11023936 25.2561734 -33.46724226 38.48350674 -32.375 51.4375 C-30.20770307 63.5546601 -24.3132946 72.28192789 -14.375 79.4375 C-7.98319962 83.28075737 -0.61877199 83.24433384 6.625 82.4375 C15.57670092 79.87423762 20.80836373 74.92460449 25.3359375 66.9375 C31.34678212 55.28010437 30.367811 40.99619634 26.84375 28.71484375 C22.91214975 17.75042408 16.20736861 11.05635775 5.875 6.125 C-5.76769085 3.66212309 -16.71808545 5.47934017 -24.91015625 14.51953125 Z " fill="#004B8D" transform="translate(2472.375,651.5625)"/>
<path d="M0 0 C1.38481567 0.01135986 1.38481567 0.01135986 2.79760742 0.02294922 C14.49388968 0.30553288 22.90995473 3.956157 31.30859375 12.0625 C39.64979785 21.04853534 42.11608268 32.97723395 41.8125 44.96875 C40.80221978 58.27077285 35.45376943 69.24055603 25.90234375 78.54296875 C14.61887315 87.92973245 0.61651319 88.58411038 -13.375 87.4375 C-24.2839283 85.40578425 -32.37922904 79.89359199 -38.83203125 70.9453125 C-43.78204626 62.89997165 -44.72856741 55.08582833 -44.8125 45.8125 C-44.82273193 44.94206055 -44.83296387 44.07162109 -44.84350586 43.17480469 C-44.68046353 31.08458888 -40.32742791 20.48438908 -32.0625 11.625 C-23.11462378 3.26709364 -12.03356055 -0.13840517 0 0 Z M-24.91015625 14.51953125 C-33.11023936 25.2561734 -33.46724226 38.48350674 -32.375 51.4375 C-30.20770307 63.5546601 -24.3132946 72.28192789 -14.375 79.4375 C-7.98319962 83.28075737 -0.61877199 83.24433384 6.625 82.4375 C15.57670092 79.87423762 20.80836373 74.92460449 25.3359375 66.9375 C31.34678212 55.28010437 30.367811 40.99619634 26.84375 28.71484375 C22.91214975 17.75042408 16.20736861 11.05635775 5.875 6.125 C-5.76769085 3.66212309 -16.71808545 5.47934017 -24.91015625 14.51953125 Z " fill="#004B8D" transform="translate(1853.375,651.5625)"/>
<path d="M0 0 C17.31914407 -2.03797197 17.31914407 -2.03797197 22.89697266 1.05029297 C26.18748184 3.9020676 28.4932155 7.45462147 30.79052734 11.12255859 C32.79148607 14.22860878 35.12788327 17.05821581 37.4375 19.9375 C38.35061326 21.10910009 39.26337149 22.28097697 40.17578125 23.453125 C43.54366341 27.72642799 47.09238399 31.83752145 50.65112305 35.9519043 C57.99737065 44.44806185 64.98924381 53.22693048 72 62 C72.05104188 55.63203383 72.08587607 49.26412116 72.10986328 42.89599609 C72.11987167 40.73321562 72.13348251 38.57044851 72.15087891 36.40771484 C72.17535544 33.28479702 72.18653504 30.16205933 72.1953125 27.0390625 C72.20563507 26.08448151 72.21595764 25.12990051 72.22659302 24.14639282 C72.2276138 17.92824504 71.67406157 12.01147763 70 6 C68.50256881 4.50256881 67.01175761 4.66797307 64.9375 4.4375 C63.638125 4.293125 62.33875 4.14875 61 4 C61 2.68 61 1.36 61 0 C69.25 0 77.5 0 86 0 C86 1.32 86 2.64 86 4 C83.69 4.33 81.38 4.66 79 5 C78.67 31.07 78.34 57.14 78 84 C73.26377616 82.81594404 71.72209207 80.7537709 68.8125 77.125 C68.32910156 76.53783203 67.84570312 75.95066406 67.34765625 75.34570312 C65.8894542 73.57091774 64.44385078 71.78646802 63 70 C61.50041039 68.16633097 60.00044162 66.33297192 58.5 64.5 C57.41912109 63.17162109 57.41912109 63.17162109 56.31640625 61.81640625 C53.72212734 58.66214808 51.08393735 55.5479702 48.4375 52.4375 C44.57112633 47.89132437 40.80583799 43.28144965 37.1015625 38.6015625 C34.14882916 34.94632011 31.09941202 31.37511743 28.03125 27.81640625 C25.52193617 24.88392411 23.13837215 21.88986833 20.83056641 18.79541016 C20.29815338 18.08244781 19.76574036 17.36948547 19.2171936 16.63491821 C18.81551971 16.0953952 18.41384583 15.55587219 18 15 C17.94902444 22.22246261 17.91415122 29.4448783 17.89013672 36.66748047 C17.8801186 39.12127415 17.86650034 41.57505601 17.84912109 44.02880859 C17.82468812 47.56871469 17.81347466 51.10846206 17.8046875 54.6484375 C17.79436493 55.73426117 17.78404236 56.82008484 17.77340698 57.93881226 C17.77245888 64.46815069 18.19951533 70.69180315 20 77 C21.49743119 78.49743119 22.98824239 78.33202693 25.0625 78.5625 C26.361875 78.706875 27.66125 78.85125 29 79 C29 80.32 29 81.64 29 83 C20.75 83 12.5 83 4 83 C4 81.68 4 80.36 4 79 C7.465 78.505 7.465 78.505 11 78 C11.02327012 70.33241584 11.04098938 62.66483539 11.05181217 54.99722385 C11.05700911 51.43604336 11.06404815 47.8748872 11.07543945 44.3137207 C11.08848122 40.21044697 11.09325457 36.10719842 11.09765625 32.00390625 C11.10281754 30.73793106 11.10797882 29.47195587 11.11329651 28.1676178 C11.63252831 16.56602995 11.63252831 16.56602995 8 6 C6.04614933 5.21011855 6.04614933 5.21011855 3.875 4.8125 C1.956875 4.4103125 1.956875 4.4103125 0 4 C0 2.68 0 1.36 0 0 Z " fill="#004B8D" transform="translate(2014,654)"/>
<path d="M0 0 C17.31914407 -2.03797197 17.31914407 -2.03797197 22.89697266 1.05029297 C26.18748184 3.9020676 28.4932155 7.45462147 30.79052734 11.12255859 C32.79148607 14.22860878 35.12788327 17.05821581 37.4375 19.9375 C38.35061326 21.10910009 39.26337149 22.28097697 40.17578125 23.453125 C43.54366341 27.72642799 47.09238399 31.83752145 50.65112305 35.9519043 C57.99737065 44.44806185 64.98924381 53.22693048 72 62 C72.05104188 55.63203383 72.08587607 49.26412116 72.10986328 42.89599609 C72.11987167 40.73321562 72.13348251 38.57044851 72.15087891 36.40771484 C72.17535544 33.28479702 72.18653504 30.16205933 72.1953125 27.0390625 C72.20563507 26.08448151 72.21595764 25.12990051 72.22659302 24.14639282 C72.2276138 17.92824504 71.67406157 12.01147763 70 6 C68.50256881 4.50256881 67.01175761 4.66797307 64.9375 4.4375 C63.638125 4.293125 62.33875 4.14875 61 4 C61 2.68 61 1.36 61 0 C69.25 0 77.5 0 86 0 C86 1.32 86 2.64 86 4 C83.69 4.33 81.38 4.66 79 5 C78.67 31.07 78.34 57.14 78 84 C73.26377616 82.81594404 71.72209207 80.7537709 68.8125 77.125 C68.32910156 76.53783203 67.84570312 75.95066406 67.34765625 75.34570312 C65.8894542 73.57091774 64.44385078 71.78646802 63 70 C61.50041039 68.16633097 60.00044162 66.33297192 58.5 64.5 C57.41912109 63.17162109 57.41912109 63.17162109 56.31640625 61.81640625 C53.72212734 58.66214808 51.08393735 55.5479702 48.4375 52.4375 C44.57112633 47.89132437 40.80583799 43.28144965 37.1015625 38.6015625 C34.14882916 34.94632011 31.09941202 31.37511743 28.03125 27.81640625 C25.52193617 24.88392411 23.13837215 21.88986833 20.83056641 18.79541016 C20.29815338 18.08244781 19.76574036 17.36948547 19.2171936 16.63491821 C18.81551971 16.0953952 18.41384583 15.55587219 18 15 C17.94902444 22.22246261 17.91415122 29.4448783 17.89013672 36.66748047 C17.8801186 39.12127415 17.86650034 41.57505601 17.84912109 44.02880859 C17.82468812 47.56871469 17.81347466 51.10846206 17.8046875 54.6484375 C17.79436493 55.73426117 17.78404236 56.82008484 17.77340698 57.93881226 C17.77245888 64.46815069 18.19951533 70.69180315 20 77 C21.49743119 78.49743119 22.98824239 78.33202693 25.0625 78.5625 C26.361875 78.706875 27.66125 78.85125 29 79 C29 80.32 29 81.64 29 83 C20.75 83 12.5 83 4 83 C4 81.68 4 80.36 4 79 C7.465 78.505 7.465 78.505 11 78 C11.02327012 70.33241584 11.04098938 62.66483539 11.05181217 54.99722385 C11.05700911 51.43604336 11.06404815 47.8748872 11.07543945 44.3137207 C11.08848122 40.21044697 11.09325457 36.10719842 11.09765625 32.00390625 C11.10281754 30.73793106 11.10797882 29.47195587 11.11329651 28.1676178 C11.63252831 16.56602995 11.63252831 16.56602995 8 6 C6.04614933 5.21011855 6.04614933 5.21011855 3.875 4.8125 C1.956875 4.4103125 1.956875 4.4103125 0 4 C0 2.68 0 1.36 0 0 Z " fill="#004B8D" transform="translate(1126,654)"/>
<path d="M0 0 C22.11 0 44.22 0 67 0 C66 10 66 10 63 13 C62.401875 12.21625 61.80375 11.4325 61.1875 10.625 C53.24812417 2.96762386 37.13699269 5.76463542 26.95849609 5.85473633 C24.99638841 5.7859894 24.99638841 5.7859894 24 7 C23.8415735 9.0708472 23.74875578 11.14678029 23.68359375 13.22265625 C23.64548584 14.35711182 23.60737793 15.49156738 23.56811523 16.66040039 C23.50346069 18.8394397 23.50346069 18.8394397 23.4375 21.0625 C23.293125 25.661875 23.14875 30.26125 23 35 C33.56 34.34 44.12 33.68 55 33 C55.33 30.69 55.66 28.38 56 26 C57.32 26 58.64 26 60 26 C60 33.26 60 40.52 60 48 C58.68 48 57.36 48 56 48 C55.34 45.69 54.68 43.38 54 41 C43.77 40.67 33.54 40.34 23 40 C23.144375 44.104375 23.28875 48.20875 23.4375 52.4375 C23.48060303 53.71294678 23.52370605 54.98839355 23.56811523 56.30249023 C23.43884747 66.93858507 23.43884747 66.93858507 26 77 C47.16787465 78.49482056 47.16787465 78.49482056 66 71 C66.99 70.34 67.98 69.68 69 69 C69.33 69.33 69.66 69.66 70 70 C69.57898572 75.05217134 68.92518894 78.18702766 67 83 C45.88 83 24.76 83 3 83 C3 81.68 3 80.36 3 79 C6.465 78.505 6.465 78.505 10 78 C10 53.91 10 29.82 10 5 C6.7 4.67 3.4 4.34 0 4 C0 2.68 0 1.36 0 0 Z " fill="#004B8D" transform="translate(2112,654)"/>
<path d="M0 0 C22.11 0 44.22 0 67 0 C66 10 66 10 63 13 C62.401875 12.21625 61.80375 11.4325 61.1875 10.625 C53.24812417 2.96762386 37.13699269 5.76463542 26.95849609 5.85473633 C24.99638841 5.7859894 24.99638841 5.7859894 24 7 C23.8415735 9.0708472 23.74875578 11.14678029 23.68359375 13.22265625 C23.64548584 14.35711182 23.60737793 15.49156738 23.56811523 16.66040039 C23.50346069 18.8394397 23.50346069 18.8394397 23.4375 21.0625 C23.293125 25.661875 23.14875 30.26125 23 35 C33.56 34.34 44.12 33.68 55 33 C55.33 30.69 55.66 28.38 56 26 C57.32 26 58.64 26 60 26 C60 33.26 60 40.52 60 48 C58.68 48 57.36 48 56 48 C55.34 45.69 54.68 43.38 54 41 C43.77 40.67 33.54 40.34 23 40 C23.144375 44.104375 23.28875 48.20875 23.4375 52.4375 C23.48060303 53.71294678 23.52370605 54.98839355 23.56811523 56.30249023 C23.43884747 66.93858507 23.43884747 66.93858507 26 77 C47.16787465 78.49482056 47.16787465 78.49482056 66 71 C66.99 70.34 67.98 69.68 69 69 C69.33 69.33 69.66 69.66 70 70 C69.57898572 75.05217134 68.92518894 78.18702766 67 83 C45.88 83 24.76 83 3 83 C3 81.68 3 80.36 3 79 C6.465 78.505 6.465 78.505 10 78 C10 53.91 10 29.82 10 5 C6.7 4.67 3.4 4.34 0 4 C0 2.68 0 1.36 0 0 Z " fill="#004B8D" transform="translate(1353,654)"/>
<path d="M0 0 C22.11 0 44.22 0 67 0 C66 10 66 10 63 13 C62.401875 12.21625 61.80375 11.4325 61.1875 10.625 C53.24812417 2.96762386 37.13699269 5.76463542 26.95849609 5.85473633 C24.99638841 5.7859894 24.99638841 5.7859894 24 7 C23.8415735 9.0708472 23.74875578 11.14678029 23.68359375 13.22265625 C23.64548584 14.35711182 23.60737793 15.49156738 23.56811523 16.66040039 C23.50346069 18.8394397 23.50346069 18.8394397 23.4375 21.0625 C23.293125 25.661875 23.14875 30.26125 23 35 C33.56 34.34 44.12 33.68 55 33 C55.33 30.69 55.66 28.38 56 26 C57.32 26 58.64 26 60 26 C60 33.26 60 40.52 60 48 C58.68 48 57.36 48 56 48 C55.34 45.69 54.68 43.38 54 41 C43.77 40.67 33.54 40.34 23 40 C23.144375 44.104375 23.28875 48.20875 23.4375 52.4375 C23.48060303 53.71294678 23.52370605 54.98839355 23.56811523 56.30249023 C23.43884747 66.93858507 23.43884747 66.93858507 26 77 C47.16787465 78.49482056 47.16787465 78.49482056 66 71 C66.99 70.34 67.98 69.68 69 69 C69.33 69.33 69.66 69.66 70 70 C69.57898572 75.05217134 68.92518894 78.18702766 67 83 C45.88 83 24.76 83 3 83 C3 81.68 3 80.36 3 79 C6.465 78.505 6.465 78.505 10 78 C10 53.91 10 29.82 10 5 C6.7 4.67 3.4 4.34 0 4 C0 2.68 0 1.36 0 0 Z " fill="#004B8D" transform="translate(922,654)"/>
<path d="M0 0 C10.23 0 20.46 0 31 0 C31 1.32 31 2.64 31 4 C28.69 4.66 26.38 5.32 24 6 C23.94900417 12.93763058 23.91414286 19.87521224 23.89013672 26.81298828 C23.88012158 29.16977749 23.86650558 31.52655441 23.84912109 33.88330078 C23.82467481 37.28421068 23.81347169 40.68495531 23.8046875 44.0859375 C23.79436493 45.12801361 23.78404236 46.17008972 23.77340698 47.2437439 C23.77212765 55.71508906 23.85316949 66.41888255 30 73 C36.79023358 78.06695461 43.72406979 79.14113986 52 78 C57.24421126 76.79031725 62.27640807 75.31816312 66 71.25 C72.72872009 60.31582985 72.18660215 48.36644486 72.18530273 35.91674805 C72.18749182 33.57126779 72.20570873 31.226257 72.22460938 28.88085938 C72.30607853 17.30159567 72.30607853 17.30159567 70 6 C68.50256881 4.50256881 67.01175761 4.66797307 64.9375 4.4375 C63.638125 4.293125 62.33875 4.14875 61 4 C61 2.68 61 1.36 61 0 C69.25 0 77.5 0 86 0 C86 1.32 86 2.64 86 4 C83.69 4.33 81.38 4.66 79 5 C78.99635437 5.69189423 78.99270874 6.38378845 78.98895264 7.09664917 C78.95088846 13.65720449 78.89382999 20.21729807 78.81609726 26.77750969 C78.77679765 30.14921728 78.74452465 33.52067058 78.72900391 36.89257812 C78.70746888 40.78036897 78.66076058 44.6671902 78.609375 48.5546875 C78.60814636 49.74988007 78.60691772 50.94507263 78.60565186 52.17648315 C78.4402794 61.74080506 76.55435172 70.32238717 69.8125 77.46875 C61.19545895 84.74866399 50.33346948 86.3900867 39.375 85.875 C30.64904713 84.97627911 23.18327861 82.33049953 17 76 C10.54344717 67.03256551 10.69788929 56.01757049 10.5859375 45.33203125 C10.56657135 44.17120529 10.5472052 43.01037933 10.5272522 41.81437683 C10.46800354 38.14715669 10.42129161 34.47990422 10.375 30.8125 C10.3367698 28.30923194 10.29771523 25.80597633 10.2578125 23.30273438 C10.16234754 17.20192533 10.07811687 11.10105483 10 5 C6.7 4.67 3.4 4.34 0 4 C0 2.68 0 1.36 0 0 Z " fill="#004B8D" transform="translate(1032,654)"/>
<path d="M0 0 C-0.20915039 1.16321777 -0.41830078 2.32643555 -0.63378906 3.52490234 C-1.17429131 7.91970899 -0.33641033 11.47017123 1.140625 15.6015625 C1.37872391 16.30863342 1.61682281 17.01570435 1.86213684 17.74420166 C2.64164917 20.04380613 3.44504889 22.33418929 4.25 24.625 C4.79849801 26.22245772 5.34593041 27.8202817 5.89233398 29.41845703 C7.56613485 34.28924596 9.27678111 39.14650167 11 44 C11.26798401 44.75547119 11.53596802 45.51094238 11.81207275 46.28930664 C17.39797135 63.61014434 17.39797135 63.61014434 25 80 C28.5693717 81.44967902 28.5693717 81.44967902 32 82 C32 83.32 32 84.64 32 86 C22.1 86 12.2 86 2 86 C2 84.68 2 83.36 2 82 C4.31 81.67 6.62 81.34 9 81 C9 77.37445224 8.67010623 75.59917594 7.46875 72.3046875 C7.15292969 71.42425781 6.83710937 70.54382813 6.51171875 69.63671875 C6.17785156 68.72535156 5.84398437 67.81398438 5.5 66.875 C4.84101629 65.06088653 4.18463304 63.24582566 3.53125 61.4296875 C3.23798828 60.62772949 2.94472656 59.82577148 2.64257812 58.99951172 C2 57 2 57 2 55 C-7.57 55 -17.14 55 -27 55 C-27.99 58.3 -28.98 61.6 -30 65 C-30.53625 66.546875 -31.0725 68.09375 -31.625 69.6875 C-32.90897798 73.46548757 -33.57830384 77.03605609 -34 81 C-30.37 81.33 -26.74 81.66 -23 82 C-23 83.32 -23 84.64 -23 86 C-31.91 86 -40.82 86 -50 86 C-50 84.68 -50 83.36 -50 82 C-48.61723877 81.70657715 -48.61723877 81.70657715 -47.20654297 81.40722656 C-42.92787141 79.52948461 -42.44075858 77.76364307 -40.6953125 73.484375 C-40.41406525 72.81292953 -40.13281799 72.14148407 -39.8430481 71.44969177 C-38.91644344 69.22436156 -38.02113152 66.98775506 -37.125 64.75 C-36.4823237 63.19221388 -35.83742835 61.63534158 -35.19042969 60.0793457 C-33.82291757 56.78261987 -32.46730288 53.48135215 -31.12011719 50.17626953 C-27.91347227 42.3239191 -24.60590255 34.51394043 -21.30804443 26.69958496 C-20.26521539 24.22362548 -19.22775827 21.74548216 -18.19189453 19.26660156 C-17.86655731 18.48994644 -17.54122009 17.71329132 -17.20602417 16.9131012 C-16.60122875 15.46919751 -15.99785949 14.02469518 -15.39627075 12.57945251 C-10.71836725 1.43480123 -10.71836725 1.43480123 -7.625 -0.4375 C-4.7177331 -1.06048576 -2.83837026 -0.81096293 0 0 Z M-12 18 C-13.85366031 22.39561715 -15.70501336 26.79219589 -17.55419922 31.18969727 C-18.18409312 32.68671149 -18.81462578 34.18345711 -19.44580078 35.67993164 C-20.35095092 37.82628844 -21.25382772 39.97358888 -22.15625 42.12109375 C-22.44060913 42.79401962 -22.72496826 43.4669455 -23.01794434 44.16026306 C-24.40524422 46.98611589 -24.40524422 46.98611589 -25 50 C-16.75 50 -8.5 50 0 50 C-3.3 39.44 -6.6 28.88 -10 18 C-10.66 18 -11.32 18 -12 18 Z " fill="#004B8D" transform="translate(817,651)"/>
<path d="M0 0 C22.11 0 44.22 0 67 0 C66 10 66 10 63 13 C62.401875 12.21625 61.80375 11.4325 61.1875 10.625 C53.24812417 2.96762386 37.13699269 5.76463542 26.95849609 5.85473633 C24.99638841 5.7859894 24.99638841 5.7859894 24 7 C23.8415735 9.0708472 23.74875578 11.14678029 23.68359375 13.22265625 C23.64548584 14.35711182 23.60737793 15.49156738 23.56811523 16.66040039 C23.50346069 18.8394397 23.50346069 18.8394397 23.4375 21.0625 C23.293125 25.661875 23.14875 30.26125 23 35 C33.56 34.34 44.12 33.68 55 33 C55.33 30.69 55.66 28.38 56 26 C57.32 26 58.64 26 60 26 C60 33.26 60 40.52 60 48 C58.68 48 57.36 48 56 48 C55.34 45.69 54.68 43.38 54 41 C43.77 40.67 33.54 40.34 23 40 C23.144375 44.0425 23.28875 48.085 23.4375 52.25 C23.48060303 53.49813477 23.52370605 54.74626953 23.56811523 56.03222656 C23.84100641 63.37778789 24.31999105 70.68093439 25 78 C28.3 78.33 31.6 78.66 35 79 C35 80.32 35 81.64 35 83 C24.44 83 13.88 83 3 83 C3 81.68 3 80.36 3 79 C6.465 78.505 6.465 78.505 10 78 C10 53.91 10 29.82 10 5 C6.7 4.67 3.4 4.34 0 4 C0 2.68 0 1.36 0 0 Z " fill="#004B8D" transform="translate(1905,654)"/>
<path d="M0 0 C9.57 0 19.14 0 29 0 C29 1.32 29 2.64 29 4 C26.69 4.33 24.38 4.66 22 5 C24.23413118 12.06036591 26.9459825 18.80432832 29.88671875 25.59765625 C30.34859085 26.67252792 30.81046295 27.7473996 31.28633118 28.85484314 C32.74996878 32.25887877 34.21864962 35.66071092 35.6875 39.0625 C36.68588191 41.38201728 37.6839322 43.70167733 38.68164062 46.02148438 C41.11726026 51.68264666 43.55701477 57.34201262 46 63 C54.05416057 44.68877229 54.05416057 44.68877229 61.5 26.125 C61.91507813 25.06410156 62.33015625 24.00320313 62.7578125 22.91015625 C65.03640433 16.97846719 66.80111868 11.24200167 68 5 C64.7 4.67 61.4 4.34 58 4 C58 2.68 58 1.36 58 0 C66.58 0 75.16 0 84 0 C84 1.32 84 2.64 84 4 C81.69 4 79.38 4 77 4 C76.63664551 5.15250244 76.27329102 6.30500488 75.89892578 7.49243164 C73.45302401 14.82006381 70.49573107 21.95575873 67.6171875 29.12109375 C66.99590213 30.67277587 66.37482195 32.22454016 65.75393677 33.77638245 C64.45944245 37.01032899 63.16326827 40.24359489 61.86572266 43.47631836 C60.20106666 47.62373839 58.53945602 51.77236979 56.87893486 55.9214468 C55.5997807 59.11725774 54.31965088 62.31267704 53.03915787 65.50795174 C52.42578249 67.03854015 51.81256922 68.56919353 51.19952011 70.09991264 C50.34599362 72.23030225 49.4913016 74.36022022 48.63623047 76.48999023 C48.1500827 77.70194565 47.66393494 78.91390106 47.16305542 80.1625824 C46.49313181 81.79694394 45.78992852 83.42014297 45 85 C43.68 85 42.36 85 41 85 C40.49774902 83.80963135 39.99549805 82.6192627 39.47802734 81.39282227 C39.14231216 80.59728439 38.80659698 79.80174652 38.46070862 78.98210144 C37.69776258 77.1739277 36.93502314 75.36566678 36.17247009 73.55732727 C34.04152111 68.50533574 31.90605098 63.45532925 29.76245117 58.40869141 C22.2783219 40.77059939 22.2783219 40.77059939 18.86053467 32.17814636 C17.6413579 29.11348823 16.40311382 26.05670665 15.16363525 23.00021362 C14.59973194 21.59219417 14.04614368 20.17999624 13.50335693 18.76370239 C10.92896331 11.23859683 10.92896331 11.23859683 5.82958984 5.48535156 C3.42679921 4.48307383 3.42679921 4.48307383 0 4 C0 2.68 0 1.36 0 0 Z " fill="#004B8D" transform="translate(1265,654)"/>
<path d="M0 0 C10.23 0 20.46 0 31 0 C31 1.32 31 2.64 31 4 C28.69 4.33 26.38 4.66 24 5 C29.5535234 16.81101455 36.17798394 27.8850071 43 39 C49.03235638 28.49923149 54.68219062 17.87980389 60 7 C60.33 6.34 60.66 5.68 61 5 C57.7 4.67 54.4 4.34 51 4 C51 2.68 51 1.36 51 0 C58.92 0 66.84 0 75 0 C75 1.32 75 2.64 75 4 C74.08919678 4.20383301 73.17839355 4.40766602 72.23999023 4.61767578 C68.07173637 6.39603863 67.25357551 8.14374892 65.16015625 12.1171875 C64.83011093 12.72958282 64.50006561 13.34197815 64.16001892 13.97293091 C63.10935567 15.93123698 62.08544245 17.90209612 61.0625 19.875 C60.04135726 21.80137328 59.01486998 23.72482032 57.98751831 25.64788818 C57.31098618 26.91900772 56.63920298 28.19266621 55.97219849 29.46881104 C53.82829253 33.55188306 51.48459584 37.44560871 49.02734375 41.3515625 C45.93541585 46.5998826 45.06455457 50.47740548 45.5 56.5 C45.52900391 57.30735596 45.55800781 58.11471191 45.58789062 58.9465332 C45.68374878 61.30234146 45.83184318 63.64836793 46 66 C46.0825 67.28261719 46.165 68.56523438 46.25 69.88671875 C46.45511818 72.5949197 46.71933333 75.29858332 47 78 C50.3 78.33 53.6 78.66 57 79 C57 80.32 57 81.64 57 83 C46.44 83 35.88 83 25 83 C25 81.68 25 80.36 25 79 C28.465 78.505 28.465 78.505 32 78 C33.84889067 56.72353503 32.67069549 42.46492301 19.78710938 24.54150391 C17.20990871 20.87638656 15.02345122 17.01743907 12.8125 13.125 C10.8316987 9.68110164 9.39707586 7.26471724 6 5 C4.0103005 4.60986284 2.00980131 4.26797351 0 4 C0 2.68 0 1.36 0 0 Z " fill="#004B8D" transform="translate(2346,654)"/>
<path d="M0 0 C10.23 0 20.46 0 31 0 C31 1.32 31 2.64 31 4 C28.69 4.33 26.38 4.66 24 5 C29.5535234 16.81101455 36.17798394 27.8850071 43 39 C49.03235638 28.49923149 54.68219062 17.87980389 60 7 C60.33 6.34 60.66 5.68 61 5 C57.7 4.67 54.4 4.34 51 4 C51 2.68 51 1.36 51 0 C58.92 0 66.84 0 75 0 C75 1.32 75 2.64 75 4 C74.08919678 4.20383301 73.17839355 4.40766602 72.23999023 4.61767578 C68.07173637 6.39603863 67.25357551 8.14374892 65.16015625 12.1171875 C64.83011093 12.72958282 64.50006561 13.34197815 64.16001892 13.97293091 C63.10935567 15.93123698 62.08544245 17.90209612 61.0625 19.875 C60.04135726 21.80137328 59.01486998 23.72482032 57.98751831 25.64788818 C57.31098618 26.91900772 56.63920298 28.19266621 55.97219849 29.46881104 C53.82829253 33.55188306 51.48459584 37.44560871 49.02734375 41.3515625 C45.93541585 46.5998826 45.06455457 50.47740548 45.5 56.5 C45.52900391 57.30735596 45.55800781 58.11471191 45.58789062 58.9465332 C45.68374878 61.30234146 45.83184318 63.64836793 46 66 C46.0825 67.28261719 46.165 68.56523438 46.25 69.88671875 C46.45511818 72.5949197 46.71933333 75.29858332 47 78 C50.3 78.33 53.6 78.66 57 79 C57 80.32 57 81.64 57 83 C46.44 83 35.88 83 25 83 C25 81.68 25 80.36 25 79 C28.465 78.505 28.465 78.505 32 78 C33.84889067 56.72353503 32.67069549 42.46492301 19.78710938 24.54150391 C17.20990871 20.87638656 15.02345122 17.01743907 12.8125 13.125 C10.8316987 9.68110164 9.39707586 7.26471724 6 5 C4.0103005 4.60986284 2.00980131 4.26797351 0 4 C0 2.68 0 1.36 0 0 Z " fill="#004B8D" transform="translate(1694,654)"/>
<path d="M0 0 C0.91974609 -0.00128906 1.83949219 -0.00257813 2.78710938 -0.00390625 C4.22473633 0.00189453 4.22473633 0.00189453 5.69140625 0.0078125 C6.64595703 0.00394531 7.60050781 0.00007812 8.58398438 -0.00390625 C9.50501953 -0.00261719 10.42605469 -0.00132812 11.375 0 C12.21474365 0.00112793 13.0544873 0.00225586 13.91967773 0.00341797 C16.25390625 0.1328125 16.25390625 0.1328125 20.25390625 1.1328125 C20.25390625 5.0928125 20.25390625 9.0528125 20.25390625 13.1328125 C18.93390625 13.1328125 17.61390625 13.1328125 16.25390625 13.1328125 C15.75890625 11.1528125 15.75890625 11.1528125 15.25390625 9.1328125 C8.04080951 6.70559173 1.77068118 5.30110742 -5.74609375 7.1328125 C-8.65239743 8.5559109 -8.65239743 8.5559109 -10.74609375 10.1328125 C-11.40609375 10.1328125 -12.06609375 10.1328125 -12.74609375 10.1328125 C-15.57206556 17.1288209 -15.57206556 17.1288209 -14.93359375 24.4453125 C-11.29113695 31.98716289 -2.69337761 34.01597032 4.59790039 36.83032227 C13.05005442 40.14109336 21.25898105 43.81505057 25.32421875 52.390625 C27.43304564 58.61077828 27.43303846 66.45012862 24.75390625 72.5078125 C20.85327323 78.97249799 14.6349901 83.92192766 7.5546875 86.4765625 C2.946424 87.39276163 -1.55586805 87.5280656 -6.24609375 87.5703125 C-7.12418701 87.58054443 -8.00228027 87.59077637 -8.90698242 87.60131836 C-15.26696151 87.51658184 -20.75852752 86.24309195 -26.74609375 84.1328125 C-29.02287946 74.08816964 -29.02287946 74.08816964 -27.74609375 69.1328125 C-26.75609375 69.1328125 -25.76609375 69.1328125 -24.74609375 69.1328125 C-24.37484375 70.0403125 -24.00359375 70.9478125 -23.62109375 71.8828125 C-20.79338813 76.7841689 -17.15831563 78.88986686 -11.80859375 80.3828125 C-4.43832329 81.92931538 2.40409188 81.33239684 9.25390625 78.1328125 C12.7968303 75.30418765 14.8236099 72.42370154 16.25390625 68.1328125 C16.25390625 62.75588062 15.4387692 59.34588648 11.62890625 55.4453125 C6.41814617 51.61496858 0.70180097 49.29060575 -5.30761719 47.02172852 C-13.38112947 43.93949085 -19.68853838 41.04903707 -24.18359375 33.3828125 C-26.85198081 27.36743995 -26.5132425 21.55538752 -24.55859375 15.3828125 C-19.38933601 6.11379863 -10.96978556 0.01475425 0 0 Z " fill="#004B8D" transform="translate(1539.74609375,651.8671875)"/>
<path d="M0 0 C0.91974609 -0.00128906 1.83949219 -0.00257813 2.78710938 -0.00390625 C4.22473633 0.00189453 4.22473633 0.00189453 5.69140625 0.0078125 C6.64595703 0.00394531 7.60050781 0.00007812 8.58398438 -0.00390625 C9.50501953 -0.00261719 10.42605469 -0.00132812 11.375 0 C12.21474365 0.00112793 13.0544873 0.00225586 13.91967773 0.00341797 C16.25390625 0.1328125 16.25390625 0.1328125 20.25390625 1.1328125 C20.25390625 5.0928125 20.25390625 9.0528125 20.25390625 13.1328125 C18.93390625 13.1328125 17.61390625 13.1328125 16.25390625 13.1328125 C15.75890625 11.1528125 15.75890625 11.1528125 15.25390625 9.1328125 C8.04080951 6.70559173 1.77068118 5.30110742 -5.74609375 7.1328125 C-8.65239743 8.5559109 -8.65239743 8.5559109 -10.74609375 10.1328125 C-11.40609375 10.1328125 -12.06609375 10.1328125 -12.74609375 10.1328125 C-15.57206556 17.1288209 -15.57206556 17.1288209 -14.93359375 24.4453125 C-11.29113695 31.98716289 -2.69337761 34.01597032 4.59790039 36.83032227 C13.05005442 40.14109336 21.25898105 43.81505057 25.32421875 52.390625 C27.43304564 58.61077828 27.43303846 66.45012862 24.75390625 72.5078125 C20.85327323 78.97249799 14.6349901 83.92192766 7.5546875 86.4765625 C2.946424 87.39276163 -1.55586805 87.5280656 -6.24609375 87.5703125 C-7.12418701 87.58054443 -8.00228027 87.59077637 -8.90698242 87.60131836 C-15.26696151 87.51658184 -20.75852752 86.24309195 -26.74609375 84.1328125 C-29.02287946 74.08816964 -29.02287946 74.08816964 -27.74609375 69.1328125 C-26.75609375 69.1328125 -25.76609375 69.1328125 -24.74609375 69.1328125 C-24.37484375 70.0403125 -24.00359375 70.9478125 -23.62109375 71.8828125 C-20.79338813 76.7841689 -17.15831563 78.88986686 -11.80859375 80.3828125 C-4.43832329 81.92931538 2.40409188 81.33239684 9.25390625 78.1328125 C12.7968303 75.30418765 14.8236099 72.42370154 16.25390625 68.1328125 C16.25390625 62.75588062 15.4387692 59.34588648 11.62890625 55.4453125 C6.41814617 51.61496858 0.70180097 49.29060575 -5.30761719 47.02172852 C-13.38112947 43.93949085 -19.68853838 41.04903707 -24.18359375 33.3828125 C-26.85198081 27.36743995 -26.5132425 21.55538752 -24.55859375 15.3828125 C-19.38933601 6.11379863 -10.96978556 0.01475425 0 0 Z " fill="#004B8D" transform="translate(666.74609375,651.8671875)"/>
<path d="M0 0 C22.11 0 44.22 0 67 0 C70.375 10.125 70.375 10.125 69 14 C66 13 66 13 64.6875 11.0625 C61.16955749 6.76279249 55.29761935 6.66534798 50.07421875 6.11328125 C49.26597656 6.03464844 48.45773437 5.95601562 47.625 5.875 C46.79355469 5.78863281 45.96210937 5.70226562 45.10546875 5.61328125 C43.07092853 5.40281157 41.0355403 5.20056686 39 5 C39.10825359 12.74623948 39.22102719 20.49239941 39.33933926 28.23849106 C39.39415794 31.83653846 39.44750493 35.43459433 39.49731445 39.03271484 C39.54557281 42.51466095 39.59792429 45.99652503 39.65294075 49.47837067 C39.68279673 51.43221588 39.70857317 53.38612209 39.73423767 55.34002686 C39.85842246 62.93834285 40.2865283 70.43364527 41 78 C44.96 78.33 48.92 78.66 53 79 C53 80.32 53 81.64 53 83 C40.46 83 27.92 83 15 83 C15 81.68 15 80.36 15 79 C20.445 78.505 20.445 78.505 26 78 C26.33 53.91 26.66 29.82 27 5 C7.33333333 5.66666667 7.33333333 5.66666667 1 13 C-0.32 13 -1.64 13 -3 13 C-2.49042339 7.98916329 -1.91507725 4.78769313 0 0 Z " fill="#004B8D" transform="translate(1621,654)"/>
<path d="M0 0 C22.11 0 44.22 0 67 0 C70.375 10.125 70.375 10.125 69 14 C66 13 66 13 64.6875 11.0625 C61.16955749 6.76279249 55.29761935 6.66534798 50.07421875 6.11328125 C49.26597656 6.03464844 48.45773437 5.95601562 47.625 5.875 C46.79355469 5.78863281 45.96210937 5.70226562 45.10546875 5.61328125 C43.07092853 5.40281157 41.0355403 5.20056686 39 5 C39.10825359 12.74623948 39.22102719 20.49239941 39.33933926 28.23849106 C39.39415794 31.83653846 39.44750493 35.43459433 39.49731445 39.03271484 C39.54557281 42.51466095 39.59792429 45.99652503 39.65294075 49.47837067 C39.68279673 51.43221588 39.70857317 53.38612209 39.73423767 55.34002686 C39.85842246 62.93834285 40.2865283 70.43364527 41 78 C44.96 78.33 48.92 78.66 53 79 C53 80.32 53 81.64 53 83 C40.46 83 27.92 83 15 83 C15 81.68 15 80.36 15 79 C20.445 78.505 20.445 78.505 26 78 C26.33 53.91 26.66 29.82 27 5 C7.33333333 5.66666667 7.33333333 5.66666667 1 13 C-0.32 13 -1.64 13 -3 13 C-2.49042339 7.98916329 -1.91507725 4.78769313 0 0 Z " fill="#004B8D" transform="translate(845,654)"/>
<path d="M0 0 C22.11 0 44.22 0 67 0 C70.375 10.125 70.375 10.125 69 14 C66 13 66 13 64.6875 11.0625 C61.16955749 6.76279249 55.29761935 6.66534798 50.07421875 6.11328125 C49.26597656 6.03464844 48.45773437 5.95601562 47.625 5.875 C46.79355469 5.78863281 45.96210937 5.70226562 45.10546875 5.61328125 C43.07092853 5.40281157 41.0355403 5.20056686 39 5 C39.10825359 12.74623948 39.22102719 20.49239941 39.33933926 28.23849106 C39.39415794 31.83653846 39.44750493 35.43459433 39.49731445 39.03271484 C39.54557281 42.51466095 39.59792429 45.99652503 39.65294075 49.47837067 C39.68279673 51.43221588 39.70857317 53.38612209 39.73423767 55.34002686 C39.85842246 62.93834285 40.2865283 70.43364527 41 78 C44.96 78.33 48.92 78.66 53 79 C53 80.32 53 81.64 53 83 C40.46 83 27.92 83 15 83 C15 81.68 15 80.36 15 79 C20.445 78.505 20.445 78.505 26 78 C26.33 53.91 26.66 29.82 27 5 C7.33333333 5.66666667 7.33333333 5.66666667 1 13 C-0.32 13 -1.64 13 -3 13 C-2.49042339 7.98916329 -1.91507725 4.78769313 0 0 Z " fill="#004B8D" transform="translate(704,654)"/>
<path d="M0 0 C10.23 0 20.46 0 31 0 C31 1.32 31 2.64 31 4 C28.69 4.66 26.38 5.32 24 6 C23.97667475 13.61577188 23.9589832 21.23153999 23.94818783 28.84733963 C23.94300267 32.38489304 23.93598591 35.92242174 23.92456055 39.45996094 C23.91146452 43.54101783 23.90673573 47.62204938 23.90234375 51.703125 C23.89718246 52.95361633 23.89202118 54.20410767 23.88670349 55.49249268 C23.88622814 63.04677501 24.23746788 70.48372774 25 78 C28.3 78.33 31.6 78.66 35 79 C35 80.32 35 81.64 35 83 C24.44 83 13.88 83 3 83 C3 81.68 3 80.36 3 79 C6.465 78.505 6.465 78.505 10 78 C10 53.91 10 29.82 10 5 C6.7 4.67 3.4 4.34 0 4 C0 2.68 0 1.36 0 0 Z " fill="#004B8D" transform="translate(1575,654)"/>
<path d="M0 0 C10.23 0 20.46 0 31 0 C31 1.32 31 2.64 31 4 C28.69 4.66 26.38 5.32 24 6 C23.97667475 13.61577188 23.9589832 21.23153999 23.94818783 28.84733963 C23.94300267 32.38489304 23.93598591 35.92242174 23.92456055 39.45996094 C23.91146452 43.54101783 23.90673573 47.62204938 23.90234375 51.703125 C23.89718246 52.95361633 23.89202118 54.20410767 23.88670349 55.49249268 C23.88622814 63.04677501 24.23746788 70.48372774 25 78 C28.3 78.33 31.6 78.66 35 79 C35 80.32 35 81.64 35 83 C24.44 83 13.88 83 3 83 C3 81.68 3 80.36 3 79 C6.465 78.505 6.465 78.505 10 78 C10 53.91 10 29.82 10 5 C6.7 4.67 3.4 4.34 0 4 C0 2.68 0 1.36 0 0 Z " fill="#004B8D" transform="translate(1225,654)"/>
</svg>
